<?xml version="1.0" standalone="no"?> 
<!DOCTYPE svg PUBLIC "-//W3C//DTD SVG 1.1//EN" "http://www.w3.org/Graphics/SVG/1.1/DTD/svg11.dtd" >
<svg xmlns="http://www.w3.org/2000/svg">
<defs>
  <font id="ionicons" horiz-adv-x="512">
    <font-face font-family="ionicons"
      units-per-em="512" ascent="512"
      descent="0" />
    <missing-glyph horiz-adv-x="0" />
    <glyph glyph-name="ios-add-circle-outline"
      unicode="&#xF101;"
      horiz-adv-x="512" d=" M346.5 272H272V346.5C272 355.3 264.8 362.5 256 362.5C247.2 362.5 240 355.3 240 346.5V272H165.5C156.7 272 149.5 266 149.5 256S157 240 165.5 240S240 240 240 240S240 175 240 165.5S247 149.5 256 149.5S272 156.7 272 165.5V240H346.5C355.3 240 362.5 247.2 362.5 256C362.5 264.8 355.3 272 346.5 272z M256 436C304.1 436 349.3 417.3 383.3 383.3S436 304.1 436 256S417.3 162.7 383.3 128.7S304.1 76 256 76C207.9 76 162.7 94.7 128.7 128.7C94.7 162.7 76 207.9 76 256S94.7 349.3 128.7 383.3C162.7 417.3 207.9 436 256 436M256 464C141.1 464 48 370.9 48 256S141.1 48 256 48C370.9 48 464 141.1 464 256S370.9 464 256 464L256 464z" />
    <glyph glyph-name="ios-add-circle"
      unicode="&#xF102;"
      horiz-adv-x="512" d=" M256 464C141.1 464 48 370.9 48 256S141.1 48 256 48C370.9 48 464 141.1 464 256S370.9 464 256 464zM346.5 240H272V165.5C272 156.7 264.8 149.5 256 149.5C251.6 149.5 247.6 151.3 244.7 154.2C241.8 157.1 240 161.1 240 165.5V240H165.5C161.1 240 157.1 241.8 154.2 244.7C151.3 247.6 149.5 251.6 149.5 256C149.5 264.8 156.7 272 165.5 272H240V346.5C240 355.3 247.2 362.5 256 362.5C264.8 362.5 272 355.3 272 346.5V272H346.5C355.3 272 362.5 264.8 362.5 256C362.5 247.2 355.3 240 346.5 240z" />
    <glyph glyph-name="ios-add"
      unicode="&#xF103;"
      horiz-adv-x="512" d=" M368.5 272H272V368.5C272 377.3 264.8 384.5 256 384.5C247.2 384.5 240 377.3 240 368.5V272H143.5C134.7 272 127.5 264.8 127.5 256C127.5 251.6 129.3 247.6 132.2 244.7C135.1 241.8 139.1 240 143.5 240H240V143.5C240 139.1 241.8 135.1 244.7 132.2C247.6 129.3 251.6 127.5 256 127.5C264.8 127.5 272 134.7 272 143.5V240H368.5C377.3 240 384.5 247.2 384.5 256C384.5 264.8 377.3 272 368.5 272z" />
    <glyph glyph-name="ios-airplane"
      unicode="&#xF104;"
      horiz-adv-x="512" d=" M407.7 288C404.3 288 392.9 287.9 389.7 287.7L324.8 286C324.1 286 323.4 286.3 323.1 286.9L225.8 432.6C222.9 437.2 217.7 440 212.3 440H188.6C183 440 181.1 434.4 183.1 429.2L233.2 286.4C233.7 285.1 232.8 283.7 231.4 283.7L109 281.9C106.4 281.8 104 283 102.4 285L65.4 330C62.4 333.9 57.7 336.1 52.8 336.1H36C33.2 336.1 31.3 333.4 32.2 330.8L52.1 262.1C53.6 258.3 53.6 254 52.1 250.2L32.2 181.5C31.3 178.9 33.2 176.2 36 176.2H52.7C57.6 176.2 62.3 178.5 65.3 182.3L103 228C104.6 230 107.1 231.2 109.6 231.1L231.3 228.4000000000001C232.7 228.3 233.6 227.0000000000001 233.1 225.7000000000001L183 82.8C181 77.6 182.9 72 188.5 72H212.2C217.7 72 222.8 74.8 225.7 79.4L323.1 225C323.5 225.6 324.1 225.9 324.8 225.9L389.7000000000001 224.2C393.0000000000001 224 404.3000000000001 223.9 407.7000000000001 223.9C452.0000000000001 223.9 480.0000000000001 238.2 480.0000000000001 255.9S452.1 288 407.7 288z" />
    <glyph glyph-name="ios-alarm"
      unicode="&#xF105;"
      horiz-adv-x="512" d=" M381.2 447.9C379.9 448 378.6 448 377.3 448L377.1 448C360.9000000000001 448 345.1 442.6 332.5 432.9C330.9 431.6 329.9 429.7 329.8 427.7C329.7 425.7 330.6 423.7 332.1 422.3L421.9000000000001 341.8C423.2000000000001 340.7000000000001 424.8 340 426.5000000000001 340C426.6000000000001 340 426.8000000000001 340 426.9000000000001 340C428.8 340.1 430.5000000000001 341 431.7000000000001 342.4C440.9 353 448 361.2 448 379C448.1 415.4 418.9 445.8 381.2 447.9z M64 379C64 361.2 71.1 353 80.3 342.4C81.5 341 83.2 340.1 85.1 340C85.2 340 85.4 340 85.5 340C87.2 340 88.8 340.6 90.1 341.8L180 422.3C181.5 423.7 182.4 425.6 182.3 427.7C182.2 429.7 181.3 431.6 179.6 432.9C167 442.6 151.2 448 135 448L134.8 448C133.5 448 132.2 448 130.9 447.9C93.2 445.8 63.9 415.4 64 379z M390 126C416.2 156.7 432 196.5 432 240C432 337.2 353.2 416 256 416S80 337.2 80 240C80 196.5 95.8 156.7 122 126L87.3 90.5C81.1 84.2 81.3 75 87.6 68.9C90.7 65.9 95 64.1 99 64.1C103.2 64.1 107.1 65.9999999999999 110.2 69.2L144.8 103.7C175.1 79 213.8 64.1 256 64.1S336.9 78.9 367.2 103.7L400.8 69.2C403.9000000000001 66 408.1 64.1 412.3 64.1C416.3 64.1 420.4000000000001 65.9 423.5 68.9C429.8 75.1 431 84.2 424.8 90.5L390 126zM270 238C270 230.3 263.7 224 256 224H174C166.3 224 160 230.3 160 238S166.3 252 174 252H242V354C242 361.7 248.3 368 256 368S270 361.7 270 354V238z" />
    <glyph glyph-name="ios-albums"
      unicode="&#xF106;"
      horiz-adv-x="512" d=" M460.9 351H51.1C31.8 351 16 335.2 16 315.9V84C16 64.7 31.8 48.9 51.1 48.9H461C480.3 48.9 496.1 64.7 496.1 84V315.9C496 335.2 480.2 351 460.9 351z M434 379H78C70.3 379 64 385.3 64 393V393C64 400.7 70.3 407 78 407H434C441.7 407 448 400.7 448 393V393C448 385.3 441.7 379 434 379z M403.2 435H108.8C101.8 435 96 440.8 96 447.8V450.2C96 457.2 101.8 463 108.8 463H403.2C410.2 463 416 457.2 416 450.2V447.8C416 440.8 410.2 435 403.2 435z" />
    <glyph glyph-name="ios-alert"
      unicode="&#xF107;"
      horiz-adv-x="512" d=" M256 464C141.1 464 48 370.9 48 256S141.1 48 256 48C370.9 48 464 141.1 464 256S370.9 464 256 464zM273.2 354.4L270.1 239.3C269.9 231.1 264.2 224.5 256 224.5H256C247.8 224.5 242.1 231.1 241.9 239.3L238.8 354.4C238.6 364 246.3 372 256 372H256C265.6 372 273.4 364.1 273.2 354.4zM256 158C245.3 158 236.9 166.1 236.9 176.4S245.3 194.8 256 194.8C266.7 194.8 275.1 186.6999999999999 275.1 176.4S266.7 158 256 158z" />
    <glyph glyph-name="ios-american-football"
      unicode="&#xF108;"
      horiz-adv-x="512" d=" M378.6 378.6C338.1 419.1 283.9 441 231.4 452.4L59.6 280.6C71 228 92.9 173.9 133.4 133.4C173.9 92.9 228.1 71 280.6 59.6L452.4 231.4C441 283.9 419.1 338.1 378.6 378.6zM344.1 224L324.9000000000001 204.8L339.7000000000001 190C344.6 185.1 344.6 177.3 339.7000000000001 172.4H339.7000000000001C334.8000000000001 167.5 327.0000000000001 167.5 322.1 172.4L307.3 187.2L288 167.8C286 165.8 283.5 164.4 280.7 163.9C276.5 163.2000000000001 272.3 164.6 269.4 167.5000000000001L269.4 167.5000000000001C267.9 169.0000000000001 266.8 170.8000000000001 266.2 172.8000000000001C264.8 177.7000000000001 266.1 182.5000000000001 269.4 185.9000000000001L288.9 205.4000000000001L273.3 221.0000000000001L254 201.7000000000001C251.9 199.6000000000001 249.3 198.2000000000001 246.4 197.8000000000001C240.9 197.1000000000001 235.7 199.7000000000001 233 204.8000000000001C232.7 205.4000000000002 232.4 206.0000000000001 232.2 206.7000000000001C230.7 211.6000000000001 232 216.5000000000001 235.3999999999999 219.9000000000001L254.8999999999999 239.4000000000001L239.4 255L220.1 235.7C218 233.6 215.4 232.2 212.5 231.8C207 231.1 201.8 233.7 199.1 238.8C198.8 239.4000000000001 198.5 240 198.3 240.7C196.8 245.6 198.1 250.5 201.5 253.9L221 273.4L205.5 289L186.2 269.7C184.1 267.6 181.5 266.2 178.6 265.8C173.1 265.1 167.9 267.7 165.2 272.8C164.9 273.4 164.6 274 164.4 274.7C162.9 279.6 164.2 284.5 167.6 287.9L187.1 307.4L172.3 322.2C167.4 327.1 167.4 334.9 172.3 339.8L172.3 339.8C177.2 344.7 185 344.7 189.9 339.8L204.7 325L224 344.3C226.1 346.4 228.7 347.8 231.6 348.2C237.1 348.9 242.3 346.3 245 341.2C245.3 340.6 245.6 340 245.8 339.3C247.3 334.4 246 329.5 242.6 326.1L223.1 306.6L238.7 291L258 310.3C260 312.3 262.5 313.7000000000001 265.3 314.2000000000001C269.5 314.9 273.7 313.5 276.6 310.6L276.6 310.6C278.1 309.2000000000001 279.2000000000001 307.4000000000001 279.8 305.4000000000001C281.3 300.5 280 295.6 276.6 292.2000000000001L257 272.6L272.6 257L291.9000000000001 276.3C294.0000000000001 278.4 296.6 279.8 299.5000000000001 280.2000000000001C305.0000000000001 280.9 310.2000000000001 278.3 312.9000000000001 273.2000000000001C313.2000000000001 272.6 313.5000000000001 272 313.7000000000001 271.3C315.2000000000001 266.4 313.9000000000001 261.5 310.5000000000001 258.1L291 238.6L306.6 223L325.9000000000001 242.3C328.1 244.5 330.9000000000001 245.9000000000001 333.9000000000001 246.3C338.3 246.8 342.5000000000001 245.1 345.3 241.7C349.4 236.7 348.8 228.6 344.1 224z M395.1 48C422.7000000000001 48 443.9000000000001 49.8 453.9 50.9C457.6 51.3 460.6 54.3 461.0000000000001 58C463.0000000000001 76.9 467.8000000000001 135.6 457.8000000000001 201.7L310.3 54.1C341.3 49.4 370.7 48 395.1 48z M116.8 464C89.3 464 68 462.2 58 461.1C54.3 460.7 51.3 457.7 50.9 454C48.9 435.1 44.1 376.4 54.1 310.4L201.6 457.9C170.6 462.6 141.2 464 116.8 464z" />
    <glyph glyph-name="ios-analytics"
      unicode="&#xF109;"
      horiz-adv-x="512" d=" M256 464C141.1 464 48 370.9 48 256S141.1 48 256 48C370.9 48 464 141.1 464 256S370.9 464 256 464zM76 256C76 304.1 94.7 349.3 128.7 383.3C162.7 417.3 207.9 436 256 436C304.1 436 349.3 417.3 383.3 383.3C415.5 351.1 434 308.8 435.9000000000001 263.6C427.1 273.9000000000001 411.7000000000001 287.6 392.1 287.6C364.6 287.6 350.4000000000001 261.9000000000001 341.1 244.9000000000001C339.7000000000001 242.4000000000001 338.4000000000001 240.0000000000001 337.2000000000001 237.9000000000001C325.8000000000001 218.7000000000001 309.9000000000001 207.9 294.7000000000001 209.0000000000001C281.3000000000001 209.9 269.9000000000001 220.2000000000001 262.5000000000001 237.8000000000001C253.3000000000001 259.9000000000001 233.4000000000001 283.6000000000001 209.6000000000001 287.0000000000001C198.3000000000001 288.6 181.5000000000001 286.2000000000001 164.9 265.6C161.7000000000001 261.6 158 256.2000000000001 153.8000000000001 250.0000000000001C143.4 234.5000000000001 127.6 211.2000000000001 115.7000000000001 209.2000000000001C98.4000000000001 206.4 84.8 216.7000000000001 79.3 221.5000000000001C77.1 232.7 76 244.3 76 256z" />
    <glyph glyph-name="ios-aperture"
      unicode="&#xF10A;"
      horiz-adv-x="512" d=" M250.2 140.6C248.4 140.6 247.5 138.4 248.8 137.2000000000001L303.7 82.3000000000001L326 60.0000000000001C368.4 75.2000000000001 404.5 103.7000000000001 429.1 140.6H250.2z M167 177.4V68C194 55.2 224.1 48 256 48C270.1 48 283.9 49.4 297.2 52.1L170.4 178.8C169.2 180.1 167 179.2 167 177.4z M256 464C242.1 464 228.6 462.6 215.5 460L342.3 333.2C343.6 331.9 345.7 332.8 345.7 334.6V443.7C318.6 456.7 288.2 464 256 464z M68.1 345.4C55.2 318.3 48 288 48 256C48 241.9 49.4 228.1 52.1 214.8L179.2 342C180.5 343.3 179.6 345.4 177.8 345.4H68.1z M186.7 452.1C144 437 107.7 408.4 83 371.3H262.7C264.5 371.3 265.4 373.5 264.1 374.7000000000001L186.7 452.1z M167 291.4V220.7C167 219.6 167.4 218.6 168.2 217.9L218.2 167.9C219 167.1 220 166.7 221 166.7H291.7C292.8 166.7 293.8 167.1 294.5 167.9L344.5 217.9C345.3 218.7 345.7 219.7 345.7 220.7V291.4C345.7 292.5 345.3 293.5 344.5 294.2L294.5 344.2C293.7 345 292.7 345.4 291.7 345.4H221C219.9 345.4 218.9 345 218.2 344.2L168.2 294.2C167.5 293.4 167 292.4 167 291.4z M460 296.5L333.6 170C332.3 168.7 333.2000000000001 166.6 335 166.6H443.8C456.8 193.7 464 224 464 256C464 269.9 462.6 283.4 460 296.5z M371.8 428.8V249.8C371.8 248 374 247.1 375.2 248.4000000000001L452.1 325.3000000000001C437.1 367.9 408.6 404.1 371.8 428.8z M60.1 186.1C75.3 143.5 104 107.3 141.1 82.7000000000001V262.2C141.1 264 138.9 264.9 137.7 263.6L60.1 186.1z" />
    <glyph glyph-name="ios-apps"
      unicode="&#xF10B;"
      horiz-adv-x="512" d=" M434.8 374.4L285.4 442.5C269.2 449.9 242.7 449.9 226.5 442.5L77.2 374.4C59.6 366.4 59.6 353.3 77.2 345.3L225.2 277.8C242.1 270.1 269.9 270.1 286.8 277.8L434.8 345.3C452.4 353.3 452.4 366.4 434.8 374.4z M225.2 136.8L125.4 182.3C121.2 184.2 116.3 184.2 112.1 182.3L77.2 166.4C59.6 158.4 59.6 145.3 77.2 137.3L225.2 69.8C242.1 62.1 269.9 62.1 286.8 69.8L434.8 137.3C452.4 145.3 452.4 158.4 434.8 166.4L399.9000000000001 182.3C395.7000000000001 184.2 390.8 184.2 386.6 182.3L286.8 136.8C269.9 129.1 242.1 129.1 225.2 136.8z M434.8 270.4L403.1 284.8C398.9000000000001 286.7000000000001 394.1 286.7000000000001 389.9000000000001 284.8L281.9000000000001 235.9000000000001C266.6 230.7000000000001 245.3000000000001 230.7000000000001 230.0000000000001 235.9000000000001L122 284.8000000000001C117.8 286.7000000000001 113 286.7000000000001 108.8 284.8000000000001L77.1 270.4000000000001C59.5 262.4000000000001 59.5 249.3 77.1 241.3L225.1 173.8C242.0000000000001 166.1 269.8 166.1 286.7000000000001 173.8L434.7000000000001 241.3C452.4 249.3 452.4 262.4 434.8 270.4z" />
    <glyph glyph-name="ios-appstore"
      unicode="&#xF10C;"
      horiz-adv-x="512" d=" M256 464C141.1 464 48 370.9 48 256C48 141.1 141.1 48 256 48C370.9 48 464 141.1 464 256C464 370.9 370.9 464 256 464zM177.1 167.1C174.4 162.5 169.6 160 164.6 160C162.1 160 159.6 160.6 157.3 162C150.4 166 148.1 174.8 152.1 181.7L166.3 205.3C167.8 207.8 170.4 209.3 173.3 209.3H175.4C185.7 209.3 192.9 203.1 195 197.1L177.1 167.1zM297.3 213.5L204.3 213.4H170.8H142.5C134.3 213.4 127.7 220.2 128.1 228.4C128.4 236.2 135.2 242.1 143 242.1H187.8C187.8 242.1 187.8 242.1 187.8 242.1L240.9 332.5C240.9 332.5 240.9 332.5 240.9 332.5L223.7 361.8C219.8 368.5 221.5 377.3 228.1 381.5C235.1 386 244.3 383.7 248.4000000000001 376.7L257.6 361C257.6 361 257.6 361 257.7000000000001 361L266.9000000000001 376.7C271.0000000000001 383.7 280.3 386 287.2000000000001 381.5C293.8000000000001 377.3 295.5000000000001 368.5 291.6 361.8L274.4000000000001 332.5L257.7000000000001 304L221.4 242.1C221.4 242.1 221.4 242.1 221.4 242H274.9000000000001C281.6 242 290.0000000000001 238.3999999999999 293.4000000000001 232.6L293.7000000000001 232C296.7000000000001 226.8999999999999 298.4000000000001 223.3999999999999 298.4000000000001 218.3C298.3 215.5 297.3 213.5 297.3 213.5zM369.5 213.4H344.3C344.3 213.4 344.3 213.4 344.3 213.3L362.7 182C366.7 175.1999999999999 364.8 166.1999999999999 357.9 162C355.6 160.6 353 159.8999999999999 350.4 159.8999999999999C345.4 159.8999999999999 340.6 162.5 337.9 167L310.7 213.3L293.8 242.1L272 279.4C265.6 290.3 265.3 303.9 271.4 314.7C275.7 322.3 279 324.3 279 324.3L327.5 242.2C327.5 242.2 327.5 242.2 327.5 242.2H369.2C377 242.2 383.7 236.2 384.1 228.5C384.4 220.2 377.8 213.4 369.5 213.4z" />
    <glyph glyph-name="ios-archive"
      unicode="&#xF10D;"
      horiz-adv-x="512" d=" M460 392H52C49.8 392 48 393.8 48 396V416C48 433.7 62.3 448 80 448H432C449.7 448 464 433.7 464 416V396C464 393.8 462.2 392 460 392z M440 366H72C67.6 366 64 362.4 64 358V96C64 78.4 78.4 64 96 64H416C433.6 64 448 78.4 448 96V358C448 362.4 444.4 366 440 366zM306 224H206.4C199.3 224 193 229.2 192.1 236.3C191.1 244.8 197.7 252 206 252H305.6C312.7000000000001 252 319 246.8 319.9000000000001 239.7C320.9 231.3 314.3 224 306 224z" />
    <glyph glyph-name="ios-arrow-back"
      unicode="&#xF10E;"
      horiz-adv-x="512" d=" M217.9 256L345 383C354.4 392.4 354.4 407.6 345 416.9C335.6 426.3 320.4 426.2 311 416.9L167 273C157.9 263.9 157.7 249.3 166.3 239.9L310.9 95C315.6 90.3 321.8 88 327.9 88C334 88 340.2 90.3 344.9 95C354.3 104.4 354.3 119.6 344.9 128.9L217.9 256z" />
    <glyph glyph-name="ios-arrow-down"
      unicode="&#xF10F;"
      horiz-adv-x="512" d=" M256 217.9L383 345C392.4 354.4 407.6 354.4 416.9 345S426.2 320.4 416.9 311L273 167C263.9 157.9 249.3 157.7 239.9 166.3L95 310.9C90.3 315.6 88 321.8 88 327.9C88 334 90.3 340.2000000000001 95 344.9C104.4 354.3 119.6 354.3 128.9 344.9L256 217.9z" />
    <glyph glyph-name="ios-arrow-dropdown-circle"
      unicode="&#xF110;"
      horiz-adv-x="512" d=" M48 256C48 141.1 141.1 48 256 48S464 141.1 464 256C464 370.9 370.9 464 256 464S48 370.9 48 256zM337.1 299.4C344.6 306.9 356.9000000000001 306.9 364.4000000000001 299.4C368.2000000000001 295.6 370.0000000000001 290.7000000000001 370.0000000000001 285.8C370.0000000000001 280.9 368.1000000000001 275.9 364.3000000000001 272.1L270.0000000000001 178.1C262.4000000000001 171.2000000000001 250.7000000000001 171.4 243.4000000000001 178.7000000000001L147.7000000000001 274.1C140.2000000000001 281.6 140.1000000000001 293.8000000000001 147.7000000000001 301.4000000000001C155.2000000000001 308.9000000000001 167.4 309.0000000000001 175.0000000000001 301.4000000000001L256.1 219.5000000000001L337.1 299.4z" />
    <glyph glyph-name="ios-arrow-dropdown"
      unicode="&#xF111;"
      horiz-adv-x="512" d=" M147.6 301.3C140.1 293.8 140.1 281.5 147.6 274L243.3 178.6C250.6 171.3 262.4000000000001 171.1 269.9000000000001 178L364.2000000000001 272C368.0000000000001 275.8 369.9000000000001 280.7 369.9000000000001 285.7C369.9000000000001 290.6 368.0000000000001 295.6 364.3 299.3C356.8 306.8 344.6 306.9 337 299.3L256 219.5L174.9 301.4C167.4 308.9 155.2 308.9 147.6 301.3z M48 256C48 141.1 141.1 48 256 48S464 141.1 464 256C464 370.9 370.9 464 256 464S48 370.9 48 256zM380.4 380.4C413.7 347.2 432 303 432 256C432 209 413.7 164.8 380.4 131.6C347.2 98.3 303 80 256 80C209 80 164.8 98.3 131.6 131.6C98.3 164.8 80 209 80 256C80 303 98.3 347.2 131.6 380.4C164.8 413.7 209 432 256 432S347.2 413.7 380.4 380.4z" />
    <glyph glyph-name="ios-arrow-dropleft-circle"
      unicode="&#xF112;"
      horiz-adv-x="512" d=" M256 464C141.1 464 48 370.9 48 256S141.1 48 256 48C370.9 48 464 141.1 464 256S370.9 464 256 464zM299.4 174.9C306.9 167.4 306.9 155.1 299.4 147.6C295.6 143.8 290.7 142 285.8 142C280.9 142 275.9 143.8999999999999 272.1 147.6999999999999L178.1 242C171.2 249.6 171.4 261.3 178.7 268.5999999999999L274.1 364.3C281.6 371.8 293.8 371.9 301.4 364.3C308.9 356.8 309 344.6 301.4 337L219.5 256L299.4 174.9z" />
    <glyph glyph-name="ios-arrow-dropleft"
      unicode="&#xF113;"
      horiz-adv-x="512" d=" M301.3 364.4C293.8 371.9 281.5 371.9 274 364.4L178.6 268.7C171.3 261.4 171.1 249.6 178 242.1L272 147.8C275.8 144 280.7 142.1 285.7 142.1C290.6 142.1 295.6 144 299.3 147.7C306.8 155.2 306.9000000000001 167.4 299.3 175L219.5 256L301.4 337.1C308.9 344.6 308.9 356.8 301.3 364.4z M256 464C141.1 464 48 370.9 48 256S141.1 48 256 48C370.9 48 464 141.1 464 256S370.9 464 256 464zM380.4 131.6C347.2 98.3 303 80 256 80C209 80 164.8 98.3 131.6 131.6C98.3 164.8 80 209 80 256C80 303 98.3 347.2 131.6 380.4C164.8 413.7 209 432 256 432C303 432 347.2 413.7 380.4 380.4C413.7 347.2 432 303 432 256S413.7 164.8 380.4 131.6z" />
    <glyph glyph-name="ios-arrow-dropright-circle"
      unicode="&#xF114;"
      horiz-adv-x="512" d=" M48 256C48 141.1 141.1 48 256 48C370.9 48 464 141.1 464 256S370.9 464 256 464C141.1 464 48 370.9 48 256zM292.5 256L210.6 337.1C203.1 344.6 203.1 356.9 210.6 364.4C218.1 371.9 230.4 371.9 237.9 364.4L333.3 268.7C340.6 261.4 340.8 249.6 333.9000000000001 242.1L239.9000000000001 147.8C236.1 144 231.2000000000001 142.1 226.2000000000001 142.1C221.3000000000001 142.1 216.3000000000001 144 212.6000000000001 147.7C205.1000000000001 155.2 205.0000000000001 167.4 212.6000000000001 175L292.5 256z" />
    <glyph glyph-name="ios-arrow-dropright"
      unicode="&#xF115;"
      horiz-adv-x="512" d=" M210.7 364.4C218.2 371.9 230.5 371.9 238 364.4L333.4 268.7C340.7 261.4 340.9 249.6 334 242.1L240 147.8C236.2 144 231.3 142.1 226.3 142.1C221.4 142.1 216.4 144 212.7 147.7C205.2 155.2 205.1 167.4 212.7 175L292.6 256.1L210.7 337.2C203.1 344.6 203.1 356.8 210.7 364.4z M48 256C48 141.1 141.1 48 256 48C370.9 48 464 141.1 464 256S370.9 464 256 464C141.1 464 48 370.9 48 256zM80 256C80 303 98.3 347.2 131.6 380.4C164.8 413.7 209 432 256 432C303 432 347.2 413.7 380.4 380.4C413.7 347.2 432 303 432 256C432 209 413.7 164.8 380.4 131.6C347.2 98.3 303 80 256 80C209 80 164.8 98.3 131.6 131.6C98.3 164.8 80 209 80 256z" />
    <glyph glyph-name="ios-arrow-dropup-circle"
      unicode="&#xF116;"
      horiz-adv-x="512" d=" M256 48C370.9 48 464 141.1 464 256C464 370.9 370.9 464 256 464S48 370.9 48 256C48 141.1 141.1 48 256 48zM256 292.5L174.9 210.6C167.4 203.1 155.1 203.1 147.6 210.6C140.1 218.1 140.1 230.4000000000001 147.6 237.9000000000001L243.3 333.3000000000001C250.6 340.6 262.4000000000001 340.8000000000001 269.9000000000001 333.9000000000001L364.2000000000001 239.9000000000001C368.0000000000001 236.1 369.9000000000001 231.2000000000001 369.9000000000001 226.2000000000001C369.9000000000001 221.3000000000001 368.0000000000001 216.3000000000001 364.3 212.6C356.8 205.1 344.6 205 337 212.6L256 292.5z" />
    <glyph glyph-name="ios-arrow-dropup"
      unicode="&#xF117;"
      horiz-adv-x="512" d=" M147.6 210.7C140.1 218.2 140.1 230.5 147.6 238L243.3 333.4C250.6 340.7000000000001 262.4000000000001 340.9 269.9000000000001 334L364.2000000000001 240C368.0000000000001 236.2 369.9000000000001 231.3 369.9000000000001 226.3C369.9000000000001 221.4 368.0000000000001 216.4 364.3 212.7C356.8 205.2 344.6 205.1 337 212.7L256 292.5L174.9 210.6C167.4 203.1 155.2 203.1 147.6 210.7z M256 48C370.9 48 464 141.1 464 256C464 370.9 370.9 464 256 464S48 370.9 48 256C48 141.1 141.1 48 256 48zM256 80C209 80 164.8 98.3 131.6 131.6C98.3 164.8 80 209 80 256C80 303 98.3 347.2 131.6 380.4C164.8 413.7 209 432 256 432C303 432 347.2 413.7 380.4 380.4C413.7 347.2 432 303 432 256C432 209 413.7 164.8 380.4 131.6C347.2 98.3 303 80 256 80z" />
    <glyph glyph-name="ios-arrow-forward"
      unicode="&#xF118;"
      horiz-adv-x="512" d=" M294.1 256L167 383C157.6 392.4 157.6 407.6 167 416.9S191.6 426.2 201 416.9L345 273C354.1 263.9 354.3 249.3 345.7 239.9L201.1 95C196.4 90.3 190.2 88 184.1 88C178 88 171.8 90.3 167.1 95C157.7 104.4 157.7 119.6 167.1 128.9L294.1 256z" />
    <glyph glyph-name="ios-arrow-round-back"
      unicode="&#xF119;"
      horiz-adv-x="512" d=" M216.4 348.3C221.5 343.3 221.5 335 216.5 329.9L155.8 269H387.1C394.2000000000001 269 400 263.2 400 256S394.2 243 387.1 243H155.8L216.6 182.1C221.6 177 221.5 168.8 216.5 163.7000000000001C211.4 158.7000000000001 203.3000000000001 158.7000000000001 198.2 163.8000000000001L115.8 246.8000000000001C115.8 246.8000000000001 115.8 246.8000000000001 115.8 246.8000000000001C114.7 248.0000000000001 113.8 249.3000000000001 113.1 250.9000000000001C112.4 252.5000000000001 112.1 254.2000000000001 112.1 255.9000000000001C112.1 259.3000000000001 113.4 262.5000000000001 115.8 265.0000000000001L198.2 348.0000000000001C203.1 353.2 211.3 353.3 216.4 348.3z" />
    <glyph glyph-name="ios-arrow-round-down"
      unicode="&#xF11A;"
      horiz-adv-x="512" d=" M348.3 216.4C343.3 221.5 335 221.5 329.9000000000001 216.5L269 155.8V387.1C269 394.2 263.2 400 256 400S243 394.2 243 387.1V155.8L182.1 216.6C177 221.6 168.8 221.5 163.7 216.5C158.7 211.3999999999999 158.7 203.3 163.8 198.1999999999999L246.8 115.8C246.8 115.8 246.8 115.8 246.8 115.8C248 114.6999999999999 249.3 113.8 250.9 113.1C252.5 112.4 254.2 112.1 255.9 112.1C259.3 112.1 262.5 113.4 265 115.8L348 198.1999999999999C353.2 203.1 353.3 211.3 348.3 216.4z" />
    <glyph glyph-name="ios-arrow-round-forward"
      unicode="&#xF11B;"
      horiz-adv-x="512" d=" M295.6 348.3C290.5 343.3 290.5 335 295.5 329.9L356.3 269H124.9C117.8 269 112 263.2 112 256S117.8 243 124.9 243H356.2000000000001L295.4000000000001 182.1C290.4000000000001 177 290.5000000000001 168.8 295.5000000000001 163.7000000000001C300.6000000000001 158.7000000000001 308.7000000000001 158.7000000000001 313.8000000000001 163.8000000000001L396.2000000000001 246.8000000000001C396.2000000000001 246.8000000000001 396.2000000000001 246.8000000000001 396.2000000000001 246.8000000000001C397.3000000000001 248.0000000000001 398.2000000000001 249.3000000000001 398.9000000000001 250.9000000000001C399.6 252.5000000000001 399.9000000000001 254.2000000000001 399.9000000000001 255.9000000000001C399.9000000000001 259.3000000000001 398.6 262.5000000000001 396.2000000000001 265.0000000000001L313.8000000000001 348.0000000000001C308.9 353.2 300.7 353.3 295.6 348.3z" />
    <glyph glyph-name="ios-arrow-round-up"
      unicode="&#xF11C;"
      horiz-adv-x="512" d=" M348.3 295.6C343.3 290.5 335 290.5 329.9000000000001 295.5L269 356.2V124.9C269 117.8 263.2 112 256 112S243 117.8 243 124.9V356.2L182.1 295.4C177 290.4 168.8 290.5 163.7 295.5C158.7 300.6 158.7 308.7 163.8 313.8L246.8 396.2C246.8 396.2 246.8 396.2 246.8 396.2C248 397.3 249.3 398.2 250.9 398.9C252.5 399.6 254.2 399.9 255.9 399.9C259.3 399.9 262.5 398.6 265 396.2L348 313.8C353.2 308.9 353.3 300.7 348.3 295.6z" />
    <glyph glyph-name="ios-arrow-up"
      unicode="&#xF11D;"
      horiz-adv-x="512" d=" M256 294.1L383 167C392.4 157.6 407.6 157.6 416.9 167C426.3 176.4 426.2 191.6 416.9 201L273 345C263.9 354.1 249.3 354.3 239.9 345.7L95 201.1C90.3 196.4 88 190.2000000000001 88 184.1C88 178 90.3 171.8 95 167.1C104.4 157.7000000000001 119.6 157.7000000000001 128.9 167.1L256 294.1z" />
    <glyph glyph-name="ios-at"
      unicode="&#xF11E;"
      horiz-adv-x="512" d=" M448 277.7C448 203.6 413.3 156.9 358.4 156.9C330.3 156.9 308.9 171.9 305.2 194.2H301.2C291.3 171 270.9 158.3 243.5 158.3C194.7 158.3 162.1 197.4 162.1 255.6C162.1 311.5 194.9 350.4000000000001 242.8 350.4000000000001C267.4000000000001 350.4000000000001 288.3 338 297.5 317.7000000000001H301.5V345.5000000000001H341.4V216.2000000000001C341.4 200.1 350.3 190.4 366.3 190.4C394 190.4 411.6 224.0000000000001 411.6 276.2000000000001C411.6 359.5000000000001 349.2 415.2000000000001 257 415.2000000000001C165.8 415.2000000000001 100.8 348.7000000000001 100.8 254.6C100.8 158.4 165.1 97 265.2000000000001 97C284.8000000000001 97 304.5000000000001 98.7 319.6 101.6C329.4000000000001 103.4 338.4000000000001 96 338.4000000000001 86.1V86.1C338.4000000000001 78.8 333.4000000000001 72.4 326.3 70.7000000000001C308.1 66.4 286.2 63.9 263.6 63.9C141.9 64 64 139.2 64 255.9C64 369.8 143.5 448 259.4 448C370.8 448 448 378.5 448 277.7zM205.2 254.7C205.2 217.7 222.6 195.3 250.9 195.3C280.7 195.3 299.5 218.3 299.5 254.7S280.7 313.6 251.4 313.6C222.3 313.6 205.2 291.8 205.2 254.7z" />
    <glyph glyph-name="ios-attach"
      unicode="&#xF11F;"
      horiz-adv-x="512" d=" M355.9 350.9C347.3 350.9 340.3 343.9 340.3 335.3V140.9C340.3 120.6 332.3 100.5 318.3 85.8C304.4 71.1999999999999 283.1 62.1 262.8 62.1H249.2C229.6 62.1 209.7 70.9999999999999 194.4 86.7C179.2 102.2 170.5 122.3 170.5 141.9V392.7C170.5 407.6 176.7 421.6 187.8 432.2C198.9 442.7 213.5 448.5 228.8 448.5C243.9 448.5 258.1 442.7 268.6 432.3C279.1 421.8 285 407.7 285 392.7V158.5C285 141.4 271.3999999999999 126.3 256 126.3C242.4 126.3 227.8 139.2 227.8 158.5V292.1C227.8 300.7 220.8 307.7 212.2 307.7C203.6 307.7 196.6 300.7 196.6 292.1V158.5C196.6 123 222.1 96.2 256 96.2C272.5 96.2 287.7 102.3 298.7 113.5C310 124.9 316.2 140.9 316.2 158.5V392.7C316.2 416.1 307.1 438.1 290.5 454.5C274 471 252 480 228.5 480C205 480 183 471 166.3 454.5C149.6 438 140.4 416.1 140.4 392.6V141.8C140.4 113.1 152.6 83.9 173 63.8C193.9 43.1999999999999 220.9 31.9 249.1 31.9H262.7C290.3 31.9 318 43.6 338.6 64C348.8 74.1 356.8 85.7 362.5 98.6C368.4 112.1 371.4 126.3 371.4 140.7000000000001V335.3C371.5 343.9 364.5 350.9 355.9 350.9z" />
    <glyph glyph-name="ios-backspace"
      unicode="&#xF120;"
      horiz-adv-x="512" d=" M395 416H230C183.3 416 156.8 381.3 128 352.5S55.9 277.8 55.9 277.8C51 272.2000000000001 48 265 48 256.9C48 248.9 51 241.6 55.9 235.9C55.9 235.9 90.2 198.3 128 160.4C165.8 122.6 184.7 95.9 230 95.9H395C433.5 95.9 464 128.4 464 166.9V347C464 385.5 433.5 416 395 416zM377.3 203.3C383.5 197.1 383.5 186.9 377.3 180.7C371.1 174.5 360.9000000000001 174.5 354.7 180.7L302 233.4L249.3 180.7C243.1 174.5 233 174.3 226.7 180.7C220.3 187.1 220 196.6 226.7 203.3C233.4 210 279.4000000000001 256 279.4000000000001 256S232.7000000000001 302.7 226.7000000000001 308.7C220.7000000000001 314.7 219.6000000000001 324.3 226.7000000000001 331.3C233.8000000000001 338.4 243.1000000000001 337.5 249.3000000000001 331.3L302.0000000000001 278.6L354.7000000000001 331.3C360.9000000000001 337.5 371.1 337.5 377.3000000000001 331.3C383.5000000000001 325.1 383.5000000000001 314.9 377.3000000000001 308.7L324.6 256L377.3 203.3z" />
    <glyph glyph-name="ios-barcode"
      unicode="&#xF121;"
      horiz-adv-x="512" d=" M121.6 124H80.8C78.6 124 76.8 125.8 76.8 128V384C76.8 386.2 78.6 388 80.8 388H121.3C129.2 388 135.8 394.4 136 402C136.1 405.9 134.7 409.2 131.9 412C129.2 414.8 123.9 416 120 416H66C56 416 48 410 48 400V112C48 102 55 96 65 96H121.3C129.2 96 135.8 101.2 136 108.8C136.1 112.7 134.7 116.3 131.9 119.1C129.2 121.9 125.5 124 121.6 124z M447 416H390.7C381.2 416 373.6 407.7 376.7 397.7C376.9 397 377.2 396.4 377.5 395.8C380.2 390.6 385.1 388 390.4 388H431.2C433.4 388 435.2 386.2 435.2 384V128.1C435.2 125.9 433.4 124.1 431.2 124.1H390.7C382.8 124.1 376.2 117.9 376 110.2000000000001C375.9 106.3000000000001 377.3 102.6 380.1 99.8000000000001C382.8 97.0000000000001 386.5 96.0000000000001 390.4000000000001 96.0000000000001H447C457 96.0000000000001 464 102.0000000000001 464 112.4V400C464 410 457 416 447 416z M122.5 336C114.8 336 108.5 329.7 108.5 322.1V190C108.5 182.3 114.8 176.1 122.5 176.1S136.5 182.4 136.5 190V322.1C136.5 329.7 130.2 336 122.5 336z M389.5 176C397.2 176 403.5 182.3 403.5 189.9V322.1C403.5 329.8 397.2 336 389.5 336S375.5 329.7 375.5 322.1V190C375.5 182.3 381.8 176 389.5 176z M326.5 368C318.8 368 312.5 361.5 312.5 353.6V158.5C312.5 150.5 318.8 144.1 326.5 144.1S340.5 150.6 340.5 158.5V353.6C340.5 361.5 334.2 368 326.5 368z M185.5 368C177.8 368 171.5 361.5 171.5 353.6V158.5C171.5 150.5 177.8 144.1 185.5 144.1S199.5 150.6 199.5 158.5V353.6C199.5 361.5 193.3 368 185.5 368z M256 352C248.3 352 242 345.6 242 337.8V174.3C242 166.5 248.3 160.1 256 160.1C263.7 160.1 270 166.5 270 174.3V337.8C270 345.6 263.7 352 256 352z" />
    <glyph glyph-name="ios-baseball"
      unicode="&#xF122;"
      horiz-adv-x="512" d=" M256.3 437.8L266 440.9C270.7 442.4 275.7 439.8 277.2 435.2L277.3 434.8C278.8 430.1 276.2 425.1 271.6 423.6L260.1 420C258 419.3 256.9000000000001 417.1 257.5 415.1C259.6 408.2 262 401.4 264.7 394.6C266.6 390 268.6 385.4 270.8 380.9C271.9000000000001 378.7000000000001 274.6 377.9 276.7 379.3L285.2 385.1C289.3 387.8 294.8 386.8 297.5 382.7000000000001L297.7 382.4C300.4 378.3 299.4 372.8 295.3 370.1L284.9000000000001 363C283.1 361.8 282.6 359.4 283.7000000000001 357.6C290.7000000000001 346.6 298.6 336.1 307.4000000000001 326.3C308.9000000000001 324.6 311.6 324.5 313.2000000000001 326.1L320.7000000000001 333.6C324.2000000000001 337.1 329.8000000000001 337.1 333.2000000000001 333.6L333.5000000000001 333.3C337.0000000000001 329.8 337.0000000000001 324.2 333.5000000000001 320.8L326.0000000000001 313.3C324.4000000000001 311.7 324.5000000000001 309 326.2000000000001 307.5C336.4000000000001 298.4 347.2000000000001 290.2 358.7000000000001 283.1C360.5000000000001 282 362.9000000000001 282.5 364.1 284.3L371 294.5C373.7 298.5999999999999 379.3 299.5999999999999 383.3 296.9L383.6 296.7C387.7000000000001 294 388.7000000000001 288.4 386 284.4L380.5 276.3C379.1 274.3 379.9 271.5 382.1 270.4C386.2000000000001 268.5 390.3 266.5999999999999 394.5 264.9C401.6 262 408.8 259.5 416.2 257.3C418.3 256.7 420.5 257.8 421.2 259.9L424.7 270.7C426.2 275.4 431.2 277.9 435.9 276.4L436.3 276.3C441 274.8 443.5 269.8 442 265.1L439.2 256.3C438.5 254 439.8999999999999 251.6 442.3 251.1C449.4 249.8 456.6 248.8 463.8 248.2C463.8 248.2 463.8 248.2 463.8 248.2C463.9 250.8 463.9999999999999 253.5 463.9999999999999 256.1C463.9999999999999 371 370.9 464.1 256 464.1C253.3 464.1 250.7 464 248 463.9C248.7 456.2 249.7 448.6 251.1 441C251.5 438.5 254 437.1 256.3 437.8z M258 64.8C257.6 67.2 255.2 68.7 252.8 68L241.2 64.3C236.5000000000001 62.8 231.5000000000001 65.4 230.0000000000001 70L229.9000000000001 70.4C228.4000000000001 75.1 231.0000000000001 80.1 235.6 81.6L249.4000000000001 85.9999999999999C251.4000000000001 86.6999999999999 252.6 88.8 252.0000000000001 90.8999999999999C249.7 98.7999999999999 247.0000000000001 106.4999999999999 243.9000000000001 114.1999999999999C242.3000000000001 118.1999999999999 240.6 122.0999999999999 238.7000000000001 126C237.7000000000001 128.1999999999999 234.9000000000001 129 232.8000000000001 127.6L221.9 120.2C217.8000000000001 117.5 212.3000000000001 118.5 209.6 122.6L209.4 122.9C206.7000000000001 127 207.7000000000001 132.5 211.8000000000001 135.2L224.8000000000001 144C226.6000000000001 145.2 227.1000000000001 147.6 226.0000000000001 149.4C218.8000000000001 161.1 210.5 172.1 201.2 182.5C199.7 184.2 197 184.3 195.4 182.7L185.5 172.8C182 169.3 176.4 169.3 173 172.8L172.7 173.1C169.2 176.6 169.2 182.2000000000001 172.7 185.6L182.6 195.5C184.2 197.1 184.1 199.8 182.4 201.3C172.4 210.3 161.8 218.3 150.5 225.3C148.7 226.4000000000001 146.3 225.9000000000001 145.1 224.1L136.1 210.8C133.4 206.7 127.8 205.7 123.8 208.4L123.5 208.6C119.4 211.3 118.4 216.9 121.1 220.9L128.7 232.2000000000001C130.1 234.2000000000001 129.3 237.0000000000001 127.1 238.1C122.8 240.2000000000001 118.5 242.1 114 243.9000000000001C106.7 246.8 99.4 249.4000000000001 91.9 251.6C89.9 252.2000000000001 87.6 251 87 249L82.4 234.6C80.9 229.9000000000001 75.9 227.4000000000001 71.2 228.9000000000001L70.8 229.0000000000001C66.1 230.5000000000001 63.6 235.5000000000001 65.1 240.2000000000001L69.1 252.6C69.8 254.9000000000001 68.4 257.4000000000001 66 257.8C60.2 258.8 54.3 259.6 48.4 260.2000000000001C48.3 260.2000000000001 48.1 260.2000000000001 48 260.3C48 258.9 48 257.5 48 256.1C48 141.2000000000001 141.1 48.1 256 48.1C257.4 48.1 258.8 48.1 260.2 48.1C260.2 48.2 260.1 48.4 260.1 48.5C259.6 53.9 258.9 59.4 258 64.8z M431.1 231.1L425.2000000000001 212.7000000000001C423.7000000000001 208.0000000000001 418.7000000000001 205.5000000000001 414.0000000000001 207.0000000000001L413.6000000000001 207.1000000000001C408.9000000000001 208.6000000000001 406.4000000000001 213.6000000000001 407.9000000000001 218.3000000000001L413.2000000000001 234.9000000000001C413.9000000000001 237.0000000000001 412.7000000000001 239.3000000000001 410.5000000000001 240.0000000000001C397.0000000000001 244.0000000000001 383.7000000000001 249.2000000000001 370.8000000000002 255.6000000000002C369.0000000000001 256.5000000000001 366.8000000000002 255.9000000000002 365.7000000000001 254.3000000000002L355.2000000000001 238.9000000000002C352.5000000000001 234.8000000000002 346.9000000000001 233.8000000000002 342.9000000000001 236.5000000000002L342.6000000000001 236.7000000000002C338.5000000000001 239.4000000000002 337.5000000000001 245.0000000000002 340.2000000000001 249.0000000000002L349.4000000000001 262.6000000000002C350.7000000000001 264.5000000000002 350.1000000000001 267.0000000000002 348.2000000000001 268.2000000000002C335.9000000000001 275.9000000000002 324.1000000000001 284.8000000000002 313.0000000000001 294.9000000000002C311.4000000000001 296.3000000000002 309.0000000000001 296.3000000000002 307.5000000000001 294.8000000000002L294.7000000000001 282.0000000000001C291.2000000000001 278.5000000000001 285.6000000000001 278.5000000000001 282.2000000000001 282.0000000000001L281.9000000000001 282.3000000000002C278.4000000000001 285.8000000000002 278.4000000000001 291.4000000000002 281.9000000000001 294.8000000000002L294.7000000000001 307.6000000000002C296.2000000000001 309.1000000000002 296.3000000000002 311.5000000000002 294.8000000000002 313.1000000000002C285.1000000000002 323.9000000000002 276.4000000000002 335.3000000000002 268.8000000000002 347.1000000000002C267.6000000000002 349.0000000000002 265.0000000000001 349.6000000000002 263.2000000000001 348.3000000000002L249.9000000000001 339.3000000000002C245.8000000000001 336.6000000000002 240.3000000000001 337.6000000000002 237.6000000000001 341.7000000000002L237.4000000000001 342.0000000000002C234.7000000000001 346.1000000000002 235.7000000000001 351.6000000000002 239.8000000000001 354.3000000000002L254.9000000000001 364.5000000000002C256.6000000000001 365.6000000000002 257.1000000000001 367.8000000000002 256.2000000000001 369.6000000000002C249.8000000000001 382.5000000000002 244.5000000000001 395.8000000000002 240.4000000000001 409.3000000000002C239.7000000000001 411.4000000000002 237.5000000000001 412.7000000000002 235.3000000000001 412.0000000000002L219.4000000000001 406.9000000000002C214.7000000000001 405.4000000000002 209.7000000000001 408.0000000000002 208.2000000000001 412.6000000000002L208.1000000000001 413.0000000000002C206.6000000000001 417.7000000000002 209.2000000000001 422.7000000000002 213.8000000000001 424.2000000000002L231.4000000000001 429.8000000000002C233.3000000000001 430.4000000000002 234.5000000000001 432.4000000000002 234.1000000000001 434.4000000000002C232.3000000000001 443.6000000000002 231.0000000000001 453.0000000000002 230.2000000000001 462.3000000000002C134.8000000000001 450.5000000000002 59.4000000000001 374.1000000000002 49.2000000000001 278.2000000000002C49.5000000000001 278.2000000000002 49.9000000000001 278.2000000000002 50.2000000000001 278.2000000000002C57.7000000000001 277.5000000000003 65.2000000000001 276.4000000000002 72.6000000000001 275.0000000000003C74.6000000000001 274.6000000000002 76.6000000000001 275.8000000000002 77.2000000000001 277.7000000000002L81.9000000000001 292.5000000000003C83.4000000000001 297.2000000000002 88.4000000000001 299.7000000000002 93.1000000000001 298.2000000000002L93.5000000000001 298.1000000000002C98.2000000000001 296.6000000000002 100.7000000000001 291.6000000000002 99.2000000000001 286.9000000000002L95.0000000000001 273.9000000000002C94.3000000000001 271.7000000000002 95.5000000000001 269.5000000000003 97.7000000000001 268.8000000000002C111.6000000000001 264.7000000000002 125.2000000000001 259.4000000000002 138.4000000000001 252.8000000000002C140.2000000000001 251.9000000000002 142.4000000000001 252.5000000000002 143.5000000000001 254.1000000000002L151.8000000000001 266.4000000000002C154.5000000000001 270.5000000000003 160.1000000000001 271.5000000000003 164.1000000000001 268.8000000000002L164.4000000000001 268.6000000000003C168.5000000000001 265.9000000000002 169.5000000000001 260.3000000000002 166.8000000000001 256.3000000000002L159.7000000000001 245.8000000000002C158.4000000000001 243.9000000000002 159.0000000000002 241.4000000000002 160.9000000000001 240.2000000000002C173.0000000000001 232.5000000000002 184.6000000000001 223.8000000000002 195.5000000000001 213.9000000000002C197.1000000000001 212.5000000000002 199.5000000000001 212.5000000000002 201.0000000000001 214.0000000000002L211.4000000000001 224.4000000000002C214.9000000000001 227.9000000000002 220.5000000000001 227.9000000000002 223.9000000000001 224.4000000000002L224.2000000000001 224.1000000000001C227.7000000000002 220.6000000000001 227.7000000000002 215.0000000000001 224.2000000000001 211.6000000000001L214 201.2C212.5 199.7 212.4 197.3 213.9 195.7C224.1 184.4 233.1 172.4 240.9 159.9C242.1 157.9 244.6 157.4 246.6 158.7L257.4 166C261.5 168.7 267 167.7 269.7 163.6L269.9 163.3C272.6 159.2 271.6 153.7 267.5 151L254.8 142.4C253.1 141.3 252.6 139.1 253.5 137.3C259.9 124.1 265.2 110.6 269.2 96.6999999999999C269.8 94.4999999999999 272.1 93.3 274.3 93.9999999999999L287.9000000000001 98.3999999999999C292.6 99.8999999999999 297.6 97.2999999999999 299.1 92.6999999999999L299.2000000000001 92.3C300.7000000000001 87.6 298.1 82.6 293.5000000000001 81.1L277.9000000000001 76.1C276.0000000000001 75.4999999999999 274.8 73.4999999999999 275.2000000000001 71.4999999999999C276.5000000000001 64.4999999999999 277.5000000000001 57.3999999999999 278.2000000000001 50.3C278.2000000000001 49.9999999999999 278.2000000000001 49.6 278.2000000000001 49.3C374.1 59.4999999999999 450.5000000000001 134.9 462.3000000000001 230.3C453.4000000000001 231 444.4000000000001 232.2 435.6000000000001 233.9C433.7 234.2 431.7 233 431.1 231.1z" />
    <glyph glyph-name="ios-basket"
      unicode="&#xF123;"
      horiz-adv-x="512" d=" M387.9 138.3L437.1 138.3L454.6 213.7L387.9 213.7z M387.9 64H388.4C407.1 64 421.8 76.5 426.7 93.5L432.7 119.4H387.9V64z M265.4 119.5H369.1V64H265.4V119.5z M75 138.3L124 138.3L124 213.7L57.5 213.7z M142.9 320H246.6V232.5H142.9V320z M265.4 320H369.1V232.5H265.4V320z M85.5 93.7C90.2 76.7 104.9 64 123.6 64H124.1V119.5H79.4L85.5 93.7z M142.9 119.5H246.6V64H142.9V119.5z M265.4 213.7H369.1V138.3H265.4V213.6999999999999z M142.9 213.7H246.6V138.3H142.9V213.6999999999999z M464 320H416.1V416C416.1 433.6 401.7000000000001 448 384.1 448H127.9C110.3 448 95.9 433.6 95.9 416V320H48C37.7 320 30.1 310.4 32.4 300.4L52.1 232.5H124V406C124 413.7 130.3 420 138 420H374C381.7 420 388 413.7 388 406V232.5H460L479.6 300.4C481.9 310.4 474.3 320 464 320z" />
    <glyph glyph-name="ios-basketball"
      unicode="&#xF124;"
      horiz-adv-x="512" d=" M218.6 205.6C232.9 217.4 246.9 230 260 243.2000000000001C262 245.2000000000001 264 247.2000000000001 266.1 249.3000000000001C263.3 252.2000000000001 260.5 255.1000000000001 257.8 257.8000000000001C207.9 307.7 150.1 347.4 86 375.9C67.6 349.8 55 319.3 50.2 286.3C82.4 284 113.4 275.8 142.4 261.8C171.2 247.9 196.8 229 218.6 205.6z M326.1 326.4C326.6 325.9 327.2000000000001 325.3 327.8 324.8C348.7 355.3 366.6 388 381.3 422.2000000000001C347.5 447.7000000000001 305.7000000000001 463.2 260.3 464.1C262.7 441.8 268.3 420 277 399.4C288.5 372 305.1 347.4 326.1 326.4z M399 277.2C419.7 268.4 441.6 262.8 464 260.5C462.8 316.8 439.2 367.6 401.8 404.4C386.8 370.6 368.5 338.1 347.4000000000001 307.6C363.2 295.2 380.6 285 399 277.2z M193.9 193.9C172.8 215 148.3 231.5 121 243.1C97.8 252.9 73.3 258.7 48.1 260.5C48.1 259 48 257.5 48 256.1C48 207.4 64.7 162.6 92.8 127.1999999999999C130.1 144.1999999999999 165.5 165.0999999999999 198.2 189.5999999999999C196.7 191 195.3 192.5 193.9 193.9z M283.8 268.4C293.9000000000001 279.7000000000001 303.5 291.5 312.6 303.5C268.1 345.8 240.5000000000001 402.1 234.4000000000001 463C182.5 457.6 136.3000000000001 433.2 102.9 396.8C136.3000000000001 381.5 168.4 363 198.5 341.7C229 320 257.7 295.4 283.8 268.4z M301.4 249.2C340.3 205.2 372.3 156 396.7 102.8C433.1 136.3 457.6 182.6 462.9 234.5C415.2 239.2 370.1 257.0999999999999 332.1 286.5C322.5 273.8 312.1 261.2 301.4 249.2z M235.3 185.8C265.2 146.3 282.8 99.6 286.3 50.2C319.3 55.0000000000001 349.8 67.6 375.8 86.0000000000001C352.4000000000001 138.6000000000001 321.5 187.0000000000001 283.6 230.2000000000001C268.4 214.6 252.2 199.7 235.3 185.8z M214.9 169.7C182.5 145.3 147.5 124.2 110.9 106.9C148.4 70.4 199.5 47.9 256 47.9C257.5 47.9 259 47.9 260.5 48C258.7 73.2 252.9 97.7 243.1 120.9C235.7 138.4 226.3 154.7 214.9 169.7z" />
    <glyph glyph-name="ios-battery-charging"
      unicode="&#xF125;"
      horiz-adv-x="512" d=" M396 368H64C37.6 368 16 346.4 16 320V192C16 165.6 37.6 144 64 144H396C422.4 144 444 165.6 444 192V320C444 346.4 422.4 368 396 368zM416 192C416 181 407 172 396 172H64C53 172 44 181 44 192V320C44 331 53 340 64 340H396C407 340 416 331 416 320V192z M464 307.4V204.6C480 204.6 496 232.3 496 256C496 279.7 480 307.4 464 307.4z M384 320H76C69.4 320 64 314.6 64 308V204C64 197.4 69.4 192 76 192H384C390.6 192 396 197.4 396 204V308C396 314.6 390.6 320 384 320zM218.8 204L227.2 247H200L245.2 308L236.8 265H264L218.8 204z" />
    <glyph glyph-name="ios-battery-dead"
      unicode="&#xF126;"
      horiz-adv-x="512" d=" M396 368H64C37.6 368 16 346.4 16 320V192C16 165.6 37.6 144 64 144H396C422.4 144 444 165.6 444 192V320C444 346.4 422.4 368 396 368zM416 192C416 181 407 172 396 172H64C53 172 44 181 44 192V320C44 331 53 340 64 340H396C407 340 416 331 416 320V192z M464 307.4V204.6C480 204.6 496 232.3 496 256C496 279.7 480 307.4 464 307.4z" />
    <glyph glyph-name="ios-battery-full"
      unicode="&#xF127;"
      horiz-adv-x="512" d=" M396 368H64C37.6 368 16 346.4 16 320V192C16 165.6 37.6 144 64 144H396C422.4 144 444 165.6 444 192V320C444 346.4 422.4 368 396 368zM416 192C416 181 407 172 396 172H64C53 172 44 181 44 192V320C44 331 53 340 64 340H396C407 340 416 331 416 320V192z M464 307.4V204.6C480 204.6 496 232.3 496 256C496 279.7 480 307.4 464 307.4z M384 320H76C69.4 320 64 314.6 64 308V204C64 197.4 69.4 192 76 192H384C390.6 192 396 197.4 396 204V308C396 314.6 390.6 320 384 320z" />
    <glyph glyph-name="ios-beaker"
      unicode="&#xF128;"
      horiz-adv-x="512" d=" M445.2 464H398H128.5C74.1 464 64 436.1 64 423.8C94.3 419.6 96 419.6 96 387.6C96 371.6 96 112.1 96 112.1C96 76.8 124.9 48.1 160.2 48.1H368C403.4 48.1 431 77.3 431 112.6V422.8C433 440.3 443.5 454.4 444.6 456.1C445.8 458 448 460.5 448 461.6C448 462.8 447.7 464 445.2 464zM112.2 434.7C112.2 434.8 112.2 434.8 112.2 434.7C118.2 435.7 124.2 436 128.5 436H398.1H405C404.1 432.3 403.5 428.9 403.2 426C403.1 424.9 403 423.9 403 422.8V351.9L403 352H124V387.5C124 405.1 124 421.7 112.2 434.7z" />
    <glyph glyph-name="ios-bed"
      unicode="&#xF129;"
      horiz-adv-x="512" d=" M458.2 304H457.8C445.8 304 436 294.2 436 282.2C436 281 435 280 433.8 280H78.2C77 280 76 281 76 282.2C76 294.2 66.2 304 54.2 304H53.8C41.8 304 32 294.2 32 282.2V101.8C32 89.8 41.8 79.9999999999999 53.8 79.9999999999999H54.2C66.2 79.9999999999999 76 89.8 76 101.8V108C76 110.2 77.8 112 80 112H432C434.2 112 436 110.2 436 108V101.8C436 89.8 445.8 80 457.8 80H458.2C470.2 80 480 89.8 480 101.8V282.2C480 294.2 470.2 304 458.2 304z M84 298H106.5C108.7 298 110.5 299.8 110.5 302V315C110.5 323.8 117.7 331 126.5 331H224C232.8 331 240 323.8 240 315V302C240 299.8 241.8 298 244 298H268C270.2 298 272 299.8 272 302V315C272 323.8 279.2 331 288 331H385.5C394.3 331 401.5 323.8 401.5 315V302C401.5 299.8 403.3 298 405.5 298H428C432.4 298 436 301.6 436 306V400C436 417.6 421.6 432 404 432H108C90.4 432 76 417.6 76 400V306C76 301.6 79.6 298 84 298z" />
    <glyph glyph-name="ios-beer"
      unicode="&#xF12A;"
      horiz-adv-x="512" d=" M112 350C112 363.3 122.7 374 136 374H365.5C370.4 374 375.1 372.5 379 369.6L379 369.6C381 368.1 383.9 369.6 383.8 372.1C383.7 377.8 383.6 381.4 383.6 393.7C383.6 414.5 366.4000000000001 432 345.5 432L345.3 432C339.6 432.4 334.5 436 332.4000000000001 441.3C323.4000000000001 463.9 300.1 479.9 276.0000000000001 479.9C255.0000000000001 479.9 241.8000000000001 472.9 232.0000000000001 461.6C227.6000000000001 456.6 220.2000000000001 455.7 214.6000000000001 459.2C207.3000000000001 463.8 198.5000000000001 466.3 189.1000000000001 466.3C174.7000000000001 466.3 161.9000000000001 459.2 153.3000000000001 448.9C149.3000000000001 444 142.9000000000001 441.9 136.7000000000001 443C131.5000000000001 444 124.1000000000001 444.8 114.0000000000001 444.8C89.0000000000001 444.8 64.0000000000001 428.2 64.0000000000001 402.4V398.4C64.0000000000001 369.6 80.0000000000001 375.5 80.0000000000001 356.6C80.0000000000001 338.7 80.0000000000001 305.8 80.0000000000001 305.8C80.0000000000001 292.4 68.8000000000001 286.5 68.8000000000001 270.6C68.8000000000001 261.8 76.8000000000001 253.8 85.6000000000001 253.8H112V350z M386 60H110C102.3 60 96 53.7 96 46S102.3 32 110 32H386C393.7 32 400 38.3 400 46S393.7 60 386 60z M400 318H368V342C368 350.8 360.8 358 352 358H144C135.2 358 128 350.8 128 342V128.2C128 116.1 126.9 110 124.8 98.1L124.7 97.6C123.9 92.9 124.9 88.1 127.5 84.1C130.9 78.9999999999999 136.6 75.9 142.8 75.9H356.7000000000001C360.8000000000001 75.9 364.8000000000001 77.3 367.8000000000001 80C372.5000000000001 84.1 374.3000000000001 90.3 373.0000000000001 96C370.3000000000001 107.8 368.5000000000001 113.8 368.2000000000001 125.9H400C426.4 125.9 448 147.5 448 173.9V269.9C448 296.4 426.4 318 400 318zM420 174C420 163 411 154 400 154H368V290H400C411 290 420 281 420 270V174z" />
    <glyph glyph-name="ios-bicycle"
      unicode="&#xF12B;"
      horiz-adv-x="512" d=" M125.3 222.7C142.6 222.7 159 215.9 171.4 203.5C183.8 191.1 190.6 174.7 190.6 157.4C190.6 140.1 183.8 123.7 171.4 111.3C159 98.9 142.6 92.1 125.3 92.1C108 92.1 91.6 98.9 79.2 111.3C66.8 123.6 60 140 60 157.3C60 174.6 66.8 191 79.2 203.4C91.6 215.8 108 222.7 125.3 222.7M125.3 250.7C74 250.7 32 208.7 32 157.4C32 106 74 64 125.3 64C176.6 64 218.6 106 218.6 157.3C218.7 208.7 176.7 250.7 125.3 250.7L125.3 250.7z M319.8 384.2C337.6 384.2 351.8 398.4 351.8 416.2C351.8 434 337.8 448 320 448C302.2 448 287.8 434 287.8 416.2C287.8 398.5 302.1 384.2 319.8 384.2z M386.7 222.7C404 222.7 420.4 215.9 432.8 203.5C445.2 191.1 452 174.7 452 157.4C452 140.1 445.2 123.7 432.8 111.3C420.4 98.8 404 92 386.7 92C369.4 92 353 98.8 340.6 111.2C328.2 123.6 321.4 140 321.4 157.3C321.4 174.6 328.2 191 340.6 203.4C352.9 215.8 369.3 222.7 386.7 222.7M386.7 250.7C335.4 250.7 293.4 208.7 293.4 157.4C293.4 106.1 335.4 64.1 386.7 64.1C438 64.1 480 106.1 480 157.4C480 208.7 438 250.7 386.7 250.7L386.7 250.7z M368 320H320L290.5 380.1C284.9 389.4 274.6 396 263.4 396C255 396 246.6 392.3 241 386.7L169.3 317.6C163.7 312 160 303.6 160 295.2000000000001C160 277.8 172.5999999999999 271.6 178.5 268.1C224 241.9 240 239 240 225.9C240 212.8 240 160 240 160C240 151.2 247.2 144 256 144C264.8 144 272 151.2 272 160C272 160 272 236.8 272 250S241.6 274 223.7 288L272.6 339.5C291.3 311 299.9 288 310.6 288C321.3 288 368 288 368 288C376.8 288 384 295.2 384 304S376.8 320 368 320z" />
    <glyph glyph-name="ios-bluetooth"
      unicode="&#xF12C;"
      horiz-adv-x="512" d=" M378.5 179L290.2 256L378.4 332.1C385.3 338.1 385.8 348.4 379.5 355L262.7 476.4C260.5 478.7 257.3 480 254.1 480H254.1C248 480 243 475.1 243 469.2V300L156.7 373.3C149.6 379.3 138.9 378.6 132.6 371.8L132.6 371.8C126.1 364.8 126.8 353.9 134.2 347.7000000000001L243 256L134.9 165.1C127.6 159 126.8 148.3 133.2 141.2000000000001L133.5 140.9C139.8000000000001 133.9 150.8000000000001 133.2000000000001 158 139.4L243 213V43.2C243 37 248.1 32 254.5 32L254.5 32C257.7 32 260.7 33.3 262.9 35.5L379.6 156C385.9 162.6 385.4 172.9 378.5 179zM279.4 411.1L342.1 345.2C342.9 344.4 342.8 343.1 341.9 342.3L279.2 289.3C277.9 288.2 275.8 289.1 275.8 290.8V409.7C275.9 411.6 278.2 412.4 279.4 411.1zM275.9 102.1V220.4C275.9 222.1 278 223 279.3 221.9L342 168.9C342.8999999999999 168.2 342.8999999999999 166.9 342.2 166L279.5 100.7C278.2 99.4 275.9 100.3 275.9 102.1z" />
    <glyph glyph-name="ios-boat"
      unicode="&#xF12D;"
      horiz-adv-x="512" d=" M351.8 90C325.6 80.8 285.3 75.1 255.7 75.1C226.1 75.1 185.8 80.8 159.6 90C159.6 90 133.5 66.1 97.3 53.8C95 53 95.8 49.6 98.2 49.9C120.8000000000001 52.5000000000001 138.4 56.4 159.6 61.9C182.6 52.9 226.3 48.0000000000001 255.7 48.0000000000001C285.1 48.0000000000001 329.8 51.8000000000001 351.8 61.9C373.3 56.3 390.6 52.3 413.8 49.8C416.2 49.5 417 52.9 414.7 53.7C379 66.1 351.8 90 351.8 90z M445.5 249C445.5 249 445.5 249 445.5 249L259.3 334.5C257.2 335.5 254.7 335.5 252.6 334.5L66.5 249C66.5 249 66.5 249 66.5 249C60.3 246.1 56 239.9 56 232.6C56 230.2000000000001 56.5 228 57.3 225.9000000000001L112 90C139.5 90 168.7 112 168.7 112C186.7 103 221.8 94.9 248 93.4C250.8 93.2 253.5 93.2 256 93.2C258.5 93.2 261.2 93.3 264 93.4C290.2 94.9 325.3 102.9 343.3 112C343.3 112 372.5 90 400 90L454.7 225.9C455.5 228 456 230.2 456 232.6C456 239.9 451.7 246.1 445.5 249zM212 224C205.4 224 200 233.8 200 246S205.4 268 212 268S224 258.2 224 246S218.6 224 212 224zM300 224C293.4 224 288 233.8 288 246S293.4 268 300 268S312 258.2 312 246S306.6 224 300 224z M391.9 385L391.9 385.1C386.3 411.7 374.4 432 352 432H317.4L315.4 440C311.8 454.1 299 464 284.4 464H227.4C212.8 464 200 454.1 196.4 439.9L194.4 432H160C137.1 432 124.9 411.3 120.2 385L102 288.2C101.4 285 104.6 282.5 107.6 283.8L132.9 295.4C134.1 295.9 134.9 297 135.2 298.3L151.4 383.9C153.9 394.6 158.7 399.9 167.5 399.9H344.6C353.5 399.9 357.7000000000001 394.9 360.7000000000001 383.9L376.9000000000001 298.3C377.1 297 378.0000000000001 295.9 379.2000000000001 295.4L404.6 283.7C407.6 282.3 410.8 284.9 410.2000000000001 288.1L391.9 385z" />
    <glyph glyph-name="ios-body"
      unicode="&#xF12E;"
      horiz-adv-x="512" d=" M208 432C208 405.4903320081219 229.4903320081219 384 256 384C282.5096679918781 384 304 405.4903320081219 304 432C304 458.5096679918781 282.5096679918781 480 256 480C229.4903320081219 480 208 458.5096679918781 208 432z M424 368H88C74.7 368 64 357.3 64 344S74.7 320 88 320H186.5C192.1 319 199.7 316.2 203.7 305.8C208.4 293.7000000000001 206.1 272.2000000000001 203.2 254.1L199.4 232.7000000000001C199.4 232.6 199.4 232.5000000000001 199.3 232.4000000000001C199.3 232.4000000000001 199.3 232.4000000000001 199.3 232.4000000000001L168.9 60.2000000000001C166.6 47.2 175.3 34.7 188.4 32.4C201.5 30.1 213.7 38.8 216 51.9L237 171.8000000000001V171.6000000000001C237 171.6000000000001 243.2 204.1000000000001 255.5 204.1000000000001H256.6C269.1 204.1000000000001 275.1 171.6000000000001 275.1 171.6000000000001V171.7000000000001L296.1 51.8000000000001C298.4 38.8000000000001 310.8 30.1000000000001 323.8 32.4000000000001C336.9 34.7000000000001 345.5 47.2000000000001 343.2 60.2000000000001L312.8 232.4000000000001C312.8 232.4000000000001 312.8 232.4000000000001 312.8 232.4000000000001C312.8 232.5000000000001 312.8 232.6000000000001 312.7 232.7000000000001L308.8999999999999 254.1000000000001C306 272.2000000000001 303.7 293.7000000000001 308.3999999999999 305.8000000000001C312.3999999999999 316.2000000000001 320 319.0000000000001 325.5999999999999 320.0000000000001H424C437.3 320.0000000000001 448 330.7000000000001 448 344.0000000000001S437.3 368 424 368z" />
    <glyph glyph-name="ios-bonfire"
      unicode="&#xF12F;"
      horiz-adv-x="512" d=" M270.9 161.4C270.2 169.6 263.3 176 255 176C247.4 176 241 170.6 239.4 163.5L239.4 163.5L223.8 85C223.3 82.7 223 80.4 223 78C223 60.3 237.3 48 255 48S287 60.3 287 78C287 80.9 286.6 83.7 285.9 86.4L270.9 161.4z M305.9 157L305.9 157L305.9 157z M388.9 125.7C387.2 127.1 385.6 128.6 383.8 129.6L324.2 173.1C318.3999999999999 176.9 312.2 176.8 307.7 172.2C303.5999999999999 168.1 303 161.8 306 156.8L351 95C351.8999999999999 93.5 353.2 92.2 354.3999999999999 90.8C362.2 81.7 379.5 81.2 389 90.8C398.4 100.6 398.3 118 388.9 125.7z M372.5 177L372.5 177L372.5 177z M435.4 192C427.6 192 379.8 192 375.9 192C372 192 368.5 189.8 367.8 185.8C367.2 182.2 369.1 178.7 372.5 177L372.5 177C372.5 177 372.6 177 372.6 177L430.3 159.2C438.6 157.3 448 164.7 448 174C448 185.8 443.2 192 435.4 192z M139.2 177L139.2 177L139.2 177z M139.2 177L139.2 177C142.5 178.6 144.5 182.2 143.9 185.8C143.2 189.8 140 192 135.8 192C131.6 192 83.9 192 76.3 192S64 183.7 64 174.4C64 165.1 73.1 157.3 81.4 159.2L139.1 177C139.1 177 139.2 177 139.2 177z M187.9 173.2L128.3 129.8C126.5 128.7 124.7 127.4 123.2 125.9C113.6 116.3 113.6 100.8 123.2 91.3C132.8 81.7 148.3 81.7 157.8 91.3C159.1 92.6 160.2 94 161.2 95.5L206.2 157.1C209.2 162.1 208.7 168.3 204.5 172.4C199.9 176.9 192.7 177.2 187.9 173.2z M358.7 373.3C358.7 430.9 286.3 464 262.7 464C274.7 383.2000000000001 161 351 150.7 282.7C140.4 214.4 198.7 192 198.7 192C215 248.6 271.1 267.6 308.4 291.8C349.1 318.2 358.7 343.1 358.7 373.3z M358.7 252.4C363.7 267.1 360.6 301.7 355.7 315.8C346.7 298.3 329.4 283.4 308.5 269.8C299.9 264.2 287.6 259 278.7 253.9C260 243.4 244.7 233.3 232.4 219.5C243.7 203.1 263.7 191.8 278.7 191.8C314.7 192 342.7 205.5 358.7 252.4z M161.8 340.1C173.5 355.2 186.7 363.9 200 376.3C213.4 388.8 222.1 397.5 227.5 407.6C216.8 427.7000000000001 196.7 435.7000000000001 182.8 433.7000000000001C185.1 405.1 152.8 389.7000000000001 150.8 368.9000000000001C149.5 356.3 156.2 343.9 161.8 340.1z" />
    <glyph glyph-name="ios-book"
      unicode="&#xF130;"
      horiz-adv-x="512" d=" M146 447.9C200.1 447.9 246 420 246 365.9V349.9L246 349.9L246 349.9L246 349.9L246 66C246 63.8 242.9 63.3 242.2 65.3C242.2 65.3 242.2 65.3 242.2 65.4C231.9 99.6 204 133 159.9 135.9C125.7 138.1 93 123.0000000000001 66.8 98.8C65.2 97.3 62.5 95.9 60.2 95.9H55.7C52 95.9 48.1 98.6 48.1 102.0000000000001V391.8C48 423.9 91.9 447.9 146 447.9z M366 448C311.9 448 266 420.1 266 366V350V350L266 350L266 350L266 66.1C266 63.9 269.1 63.4 269.8 65.4C269.8 65.4 269.8 65.4 269.8 65.5000000000001C280.1 99.7000000000001 309.2 133.4000000000001 352.1 136.0000000000001C385 138.0000000000001 416 125.0000000000001 445.2000000000001 98.9C446.8000000000001 97.5000000000001 449.5000000000001 96.0000000000001 451.8000000000001 96.0000000000001H456.3000000000001C460.0000000000001 96.0000000000001 463.9000000000001 98.7000000000001 463.9000000000001 102.1000000000001V392C464 424 420.1 448 366 448z" />
    <glyph glyph-name="ios-bookmark"
      unicode="&#xF131;"
      horiz-adv-x="512" d=" M128 432V52C128 48.7 131.8 46.8 134.4 48.8L251.2 140.8C254.1 142.9 258 142.9 260.8 140.8L377.6 48.8C380.2000000000001 46.8 384 48.7 384 52V432C384 449.7 369.7 464 352 464H160C142.3 464 128 449.7 128 432z" />
    <glyph glyph-name="ios-bookmarks"
      unicode="&#xF132;"
      horiz-adv-x="512" d=" M416 480V352.1L393.1 366.6L384 373L374.9 366.6L352 352.1V480H311.1C310.9000000000001 480 310.8 480 310.6 480C288.1 479.8 270 461.2 270 438.6V125.4C270 117.9 264.2 111.4 256.7 111C248.7 110.6 242 117 242 125V438.6C242 461.2 223.9 479.8 201.4 480C201.2 480 201.1 480 200.9 480H95.1C64.8 480 40 455.2 40 424.9V135.1C40 104.8 64.8 80 95.1 80L203.1 80.1C207.3 80 211.4 79.5 215.3 78.7000000000001C230.6 75.6 242.1 62.1 241.9 46.5000000000001C241.8 39.3000000000001 247.1 32.9 254.3 32.1000000000001C262.8 31.2000000000001 270 37.8000000000001 269.9 46.2000000000001C269.7 62.0000000000001 281.3 75.6000000000001 296.8 78.7000000000001C300.6 79.5000000000001 304.7 79.9000000000001 308.8 80.0000000000001L416.8 79.9000000000001C447.1 79.9000000000001 471.9 104.7000000000001 471.9 135.0000000000001V424.9C472 455.2 446.3 480 416 480z" />
    <glyph glyph-name="ios-bowtie"
      unicode="&#xF133;"
      horiz-adv-x="512" d=" M290.8 298.5C286 307 277 309.8 266 309.8V310C260 310 251.7 308.7 243.4 307.1C231.5 304.8 223.7 300 223.7 300S227.3 272.7 223.8 241.5C220.3 210.3 215.9 199 215.9 199S221.2 186.9 255.9 184C259.8 183.7 263.5 183.5 266.9 183.5C291.4 183.5 303.3 190.8 303.3 190.8S306.6 196.2 307.6 212.9C309.5 245.1 300.6 281.4 290.8 298.5z M205.7 303.2C183.7 343.4 119.5 400 84.4 400C57.9 400 32 331.5 32 256S55 112 83.5 112C116.9 112 194 192 194 192S199.7 204.6 203.9 225.6L205.7 236C206.4 240.7 207 245.7 207.4 251C207.7 254.5 207.9 257.8 208 260.9L208.3 270.7000000000001C209 286.7 205.7 303.2 205.7 303.2z M427.6 400C391.2000000000001 400 331.2000000000001 343.5 309.3 303.2L308.5 301.8C308.5 301.8 309.9 299.3 310.4 298.4C313.8 292.4 317.1 284.1 319.8 274.4L322.7 262.7C324.8999999999999 252.5 326.3999999999999 241.5 326.8999999999999 230.5L327.0999999999999 221.5C327.0999999999999 218.6 326.9999999999999 215.8 326.7999999999999 213C325.7999999999999 196.3 322.1999999999999 190.9 322.1999999999999 190.9C329.7999999999999 180.4 391.1999999999999 112 428.3999999999999 112C456.8999999999999 112 479.8999999999999 180.5 479.8999999999999 256S454.1 400 427.6 400z" />
    <glyph glyph-name="ios-briefcase"
      unicode="&#xF134;"
      horiz-adv-x="512" d=" M80 64H432C449.7 64 464 78.3 464 96V288H48V96C48 78.3 62.3 64 80 64z M432 384H424V392C424 396.4 420.4 400 416 400H384C379.6 400 376 396.4 376 392V384H348V416C348 433.6 333.6 448 316 448H196C178.4 448 164 433.6 164 416V384H136V392C136 396.4 132.4 400 128 400H96C91.6 400 88 396.4 88 392V384H80C62.3 384 48 369.7 48 352V312H464V352C464 369.7 449.7 384 432 384zM320 384H192V412C192 416.4 195.6 420 200 420H312C316.4 420 320 416.4 320 412V384z" />
    <glyph glyph-name="ios-browsers"
      unicode="&#xF135;"
      horiz-adv-x="512" d=" M48 330.6V88C48 65.9 65.9 48 88 48H330.6C352.7000000000001 48 370.6 65.9 370.6 88V330.6C370.6 352.7 352.7000000000001 370.6 330.6 370.6H88C65.9 370.6 48 352.7 48 330.6z M141.4 424V395.6C141.4 393.4 143.2 391.6 145.4 391.6H343.6C370 391.6 391.6 370 391.6 343.6V145.4C391.6 143.2 393.4000000000001 141.4 395.6 141.4H424C446.1 141.4 464 159.3 464 181.4V424C464 446.1 446.1 464 424 464H181.4C159.3 464 141.4 446.1 141.4 424z" />
    <glyph glyph-name="ios-brush"
      unicode="&#xF136;"
      horiz-adv-x="512" d=" M149.6 228.7C97.7 228.7 65.7 183 65.7 133.6C65.7 112.3 54.8 96.5 34.3 87.2000000000001C32.1 86.2000000000001 31.3 83.4 32.6 81.4C49.3 56.8 95.9 48.1 127.9 48.1C136.3 48.1 143.8 48.7 149.7 49.8C185.3 56.2 229.8 74.7 240.4 126.8C252.6 187.3 201.5 228.7 149.6 228.7z M467.7 451.6C460 459.3 450.9 464 441.6 464C435.3 464 428.9000000000001 461.8 422.8 457L257.7 311.7C252.3 306.9 245.3 304.3 238 304.3L237.9 304.3C237.9 304.3 237.8 304.3 237.8 304.3C232.2 304.3 226.7 302.2 222.4 298.5L168.8 254.7C166.7 252.9 166.1 249.9 167.4 247.5L167.4 247.5C168.3 245.8 170 244.6 171.9 244.4C217.5 239.9 258.9 207.4 259.2 157.8C259.2 156.1 259.9 154.4 261.2 153.3C263.7 151.1999999999999 267.2 151.6 269.2 153.9L314.3 206.1C317.8 210.1 320.1 215.2 320.3 220.6C320.3 221 320.3 221.4 320.3 221.8C320.3 229.3 323.3 236.6 328.3 242.2L473.1 406.5999999999999C485 421.7 480.7 438.7 467.7 451.6z" />
    <glyph glyph-name="ios-bug"
      unicode="&#xF137;"
      horiz-adv-x="512" d=" M374.6 384.7C345.4 423.5 303.1 448 256 448C208.9 448 166.6 423.5 137.4 384.7C143.8 369.1 153.2 354.7 165.5 342.4C189.7 318.2000000000001 221.8 304.9 256 304.9C290.2 304.9 322.3 318.2000000000001 346.5 342.4C358.8 354.7 368.3 369 374.6 384.7z M122 362C122 362 118.2 363.6 116.1 365.3C114 367 111.1 370.2000000000001 109.6 373.7000000000001C115 385 110.8 398.7000000000001 99.7 405C87.9 411.6 72.8 407.2000000000001 66.6 395C62.1 386.1 63.7 375.2000000000001 70.4 367.9C72.2 366 74.1 364.5 76.1 363.3C78.9 361.7000000000001 81 359.3 82.5 356.5C85.2 351.3 88.9 345.8 93.6 341.9C97.8 338.4 102.4 334.8 108.8 331.2000000000001C101.6 310.9 97.2 288.9000000000001 96.3 265.8C85.3 265.6 77.7 263.7000000000001 70.8 261.7000000000001C66.6 260.5 62.6 258.3 59 255.8C58 255.9000000000001 57.1 256 56.1 256C42.3 256 31.3 244.4 32.1 230.4C32.8 218.6 42.4 208.9 54.3 208C65.3 207.2 74.9 213.9 78.6 223.5C80.6 228.8 85.3 232.7 91 233.4C92.9 233.6 94.9 233.8 97.2 233.8C100.4 200.8 110.5 170.3 125.8 144.6C111.6 133.6 102.9 121.6 99.2 108.3C99.2 108.3 98.4 107.9 97.3 106.9C96.3 106.1 95.4 105.3 94.5 104.3C85.6 94.4 86.4 79.3 96.3 70.4C106.2 61.5 121.3 62.3 130.2 72.2C136.4 79.1 137.8 88.5 134.8 96.7C132.6 102.7 134.1 109.4 138.7 113.7C140.3 115.2 142.2 116.8 144.4 118.6C171.5 86.9 203.8 66.6 244.1 64.2V279.1C190.8 282 144.4 316.7 122 362z M456 255.9C455 255.9 454 255.8 453.1 255.7C449.5 258.2 445.4000000000001 260.3 441.3 261.6C434.4000000000001 263.6 426.9000000000001 265.5 415.8 265.7C414.8 288.8 410.4000000000001 310.9 403.3 331.1C409.7 334.7 414.3 338.3 418.5 341.8C423.4 345.9 427.2 351.8 430 357.1C431.3 359.6 433.3 361.6 435.8 363C435.8 363 435.9000000000001 363 435.9000000000001 363.1C447.5000000000001 369.6 451.6 384.2 445.1 395.8C438.6 407.4 424 411.5 412.4000000000001 405C401.3 398.8 397.1 385.1 402.5000000000001 373.7C400.9000000000001 370.3 399.1000000000001 368 396.0000000000001 365.3C393.7000000000001 363.3 390.1000000000001 361 390.1000000000001 361C367.7000000000001 315.7 321.3000000000001 282 268.1000000000001 279.1V64C308.4000000000001 66.4 340.7000000000001 86.8 367.8000000000001 118.4C369.9000000000001 116.7 371.7000000000001 115.2 373.2000000000001 113.8C378.0000000000001 109.4 379.6 102.4999999999999 377.4000000000001 96.3C374.4000000000001 88.1999999999999 375.9000000000001 78.8 382.1 71.9999999999999C391 62.1 406.1 61.3 416 70.1999999999999C425.9 79.0999999999999 426.7 94.1999999999999 417.8 104.0999999999999C416.9000000000001 105.0999999999999 416 105.8999999999999 415 106.6999999999999C413.9 107.5999999999999 413.1 108.0999999999999 413.1 108.0999999999999C409.4000000000001 121.3999999999999 400.7000000000001 133.3999999999999 386.5 144.3999999999999C401.8 170.0999999999999 411.9 200.5999999999999 415.1 233.5999999999999C417.2000000000001 233.5999999999999 419.2000000000001 233.3999999999999 421 233.2C426.9 232.5 431.7 228.5 433.9 223C437.6 213.6 447.1 207.1 458 207.8999999999999C469.8 208.7999999999999 479.4 218.3999999999999 480.2 230.2999999999999C480.8 244.3 469.8 255.9 456 255.9z" />
    <glyph glyph-name="ios-build"
      unicode="&#xF138;"
      horiz-adv-x="512" d=" M441.1 380.9L396.2000000000001 335.8C395.3000000000001 334.9 393.9000000000001 334.5 392.7000000000001 334.7000000000001L346.3000000000001 343.1C344.7000000000001 343.4000000000001 343.4000000000001 344.7000000000001 343.1000000000001 346.3L334.8000000000001 392.7000000000001C334.6000000000001 394 335.0000000000001 395.3 335.9000000000001 396.2000000000001L380.7000000000001 441.2000000000001C384.2000000000001 444.7000000000001 383.7000000000001 450.5 379.7000000000001 453.3C369.6 460.5 357.6 464 347.9 464C347.2 464 346.5 464 345.9 463.9C333.4 463.2 306.6 456.2 285.9 434.2C265.8 413 244.8 373.6 263.4 329.7C265.6 324.4 268.1 317.4 260.7 310C253.1 302.6 61 121.7 61 121.7C43 106.2 44.3 77.5 60.9 60.8C69.4 52.4 80.9 48 92.2 48C103.3 48 114.1 52.2 121.8 61.1C121.8 61.1 301.2000000000001 252.2000000000001 310 260.9000000000001C314 264.8000000000001 317.7 266 321.1 266C324.4000000000001 266 327.4000000000001 264.8000000000001 329.7000000000001 263.6C339.6 258.5 350.7000000000001 256.2000000000001 362.1 256.2000000000001C388.9000000000001 256.2000000000001 417.1 268.6 434.3 285.8C458.7 310.2000000000001 463.2 333.8 463.9 345.9C464.5000000000001 355.8 461.7 368.5 453.2 380.1C450.3 383.9 444.6 384.3 441.1 380.9zM102.5 82.7C97 77.3 88.1 77.3 82.6 82.7C77.2 88.2 77.2 97.1 82.6 102.6C88.1 107.9999999999999 97 107.9999999999999 102.5 102.6C107.9 97 107.9 88.1 102.5 82.7z" />
    <glyph glyph-name="ios-bulb"
      unicode="&#xF139;"
      horiz-adv-x="512" d=" M404 323.1C404 401 333.9 464 256 464C178.1 464 108 400.9 108 323.1C108 292.1 121.2 267 138.2 243H137.9C148.8 228 159.3 225.3 169.4 208C184.1 182.8 187.5 167.3 188.1 152.3C188.5 143.7 195.6 137 204.1 137H213C215.2 137 217 138.8 217 141V235.5C217 240.5 215.8 245.3 213.6 249.8L192.6 291.8C189.1 298.8 194.2 307 202 307H202C206 307 209.7 304.7 211.4 301.1L236.7 249.7C238.9 245.3 240 240.5 240 235.6V141C240 138.8 241.8 137 244 137H268C270.2 137 272 138.8 272 141V235.6C272 240.5 273.1 245.3 275.3 249.7000000000001L300.7 301.3000000000001C302.4 304.7000000000001 305.9 306.9000000000001 309.7 306.9000000000001H309.7C317.2 306.9000000000001 322.1 299 318.7 292.3000000000001L297.4 249.7000000000001C295.2 245.2000000000001 294 240.3000000000001 294 235.4000000000001V141C294 138.8 295.8 137 298 137H308C316.5 137 323.5 143.6 324 152C324.9 167.4 328.7 184.3 342.4 208C352.5 225.3 363 228 373.9 243H373.8C390.8 267 404 292.1 404 323.1z M238 48H274C281.7 48 288 54.3 288 62L288 62C288 69.7 281.7 76 274 76H238C230.3 76 224 69.7 224 62L224 62C224 54.3 230.3 48 238 48z M218 92H294C301.7 92 308 98.3 308 106L308 106C308 113.7 301.7 120 294 120H218C210.3 120 204 113.7 204 106L204 106C204 98.3 210.3 92 218 92z" />
    <glyph glyph-name="ios-bus"
      unicode="&#xF13A;"
      horiz-adv-x="512" d=" M109.6 95.3C107.7 97.2 103.9 95.8 104 93.1C105 71.6 105.4 64.1 109.5 64.1C114.1 64.1 160.2 64.1 164.6 64.1C169 64.1 167.9 75.6 167.9 86.1C133.6 86 121 83.8 109.6 95.3z M402.4 95.3C404.3 97.2 408.1 95.8 408 93.1C407 71.6 406.6 64.1 402.5 64.1C397.9 64.1 351.8 64.1 347.4 64.1C343 64.1 344.1 75.6 344.1 86.1C378.4 86 391 83.8 402.4 95.3z M384 448H376H136H128C110.4 448 96 433.6 96 416L96 416L96 140C96 118 114 100 136 100H376C398 100 416 118 416 140V416L416 416C416 433.6 401.6 448 384 448zM162 136.1C147.2 134.9 135 147.2000000000001 136.1 162C137 173.6 146.4 183.1 158.1 184C172.9 185.2 185.1 172.9 184 158.1C183 146.4 173.6 137 162 136.1zM238 214H140.2C131.3 214 124 221.3 124 230.2V345.8C124 354.7000000000001 131.3 362 140.2 362H238C240.2 362 242 360.2 242 358V218C242 215.8 240.2 214 238 214zM353.9 136.1C339.1 134.9 326.9 147.2000000000001 328 162C328.9 173.6 338.3 183.1 350 184C364.8 185.2 377 172.9 375.9 158.1C375 146.4 365.6 137 353.9 136.1zM388 230C388 221.2 380.8 214 372 214H274C271.8 214 270 215.8 270 218V358C270 360.2 271.8 362 274 362H372C380.8 362 388 354.8 388 346V230zM373 392H139C130.2 392 124 398.3 124 406C124 413.7 130.2 420 139 420H373C381.8 420 388 413.7 388 406C388 398.3 381.8 392 373 392z" />
    <glyph glyph-name="ios-business"
      unicode="&#xF13B;"
      horiz-adv-x="512" d=" M146 432H366C375.9 432 384 440.1 384 450L384 450C384 459.9 375.9 468 366 468H146C136.1 468 128 459.9 128 450L128 450C128 440.1 136.1 432 146 432z M398 412H114C104.1 412 96 403.9 96 394C96 384.7 102.9 376.9 112 376V76C112 62.8 122.8 52 136 52H224C228.4 52 232 55.6 232 60V100C232 104.4 235.6 108 240 108H272C276.4 108 280 104.4 280 100V60C280 55.6 283.6 52 288 52H376C389.2 52 400 62.8 400 76V376C409.1 376.9 416 384.7 416 394C416 403.9 407.9 412 398 412zM192 148C192 143.6 188.4 140 184 140H168C163.6 140 160 143.6 160 148V164C160 168.4 163.6 172 168 172H184C188.4 172 192 168.4 192 164V148zM192 212C192 207.6 188.4 204 184 204H168C163.6 204 160 207.6 160 212V228C160 232.4 163.6 236 168 236H184C188.4 236 192 232.4 192 228V212zM192 276C192 271.6 188.4 268 184 268H168C163.6 268 160 271.6 160 276V292C160 296.4 163.6 300 168 300H184C188.4 300 192 296.4 192 292V276zM192 340C192 335.6 188.4 332 184 332H168C163.6 332 160 335.6 160 340V356C160 360.4 163.6 364 168 364H184C188.4 364 192 360.4 192 356V340zM272 148C272 143.6 268.4 140 264 140H248C243.6 140 240 143.6 240 148V164C240 168.4 243.6 172 248 172H264C268.4 172 272 168.4 272 164V148zM272 212C272 207.6 268.4 204 264 204H248C243.6 204 240 207.6 240 212V228C240 232.4 243.6 236 248 236H264C268.4 236 272 232.4 272 228V212zM272 276C272 271.6 268.4 268 264 268H248C243.6 268 240 271.6 240 276V292C240 296.4 243.6 300 248 300H264C268.4 300 272 296.4 272 292V276zM272 340C272 335.6 268.4 332 264 332H248C243.6 332 240 335.6 240 340V356C240 360.4 243.6 364 248 364H264C268.4 364 272 360.4 272 356V340zM352 148C352 143.6 348.4 140 344 140H328C323.6 140 320 143.6 320 148V164C320 168.4 323.6 172 328 172H344C348.4 172 352 168.4 352 164V148zM352 212C352 207.6 348.4 204 344 204H328C323.6 204 320 207.6 320 212V228C320 232.4 323.6 236 328 236H344C348.4 236 352 232.4 352 228V212zM352 276C352 271.6 348.4 268 344 268H328C323.6 268 320 271.6 320 276V292C320 296.4 323.6 300 328 300H344C348.4 300 352 296.4 352 292V276zM352 340C352 335.6 348.4 332 344 332H328C323.6 332 320 335.6 320 340V356C320 360.4 323.6 364 328 364H344C348.4 364 352 360.4 352 356V340z" />
    <glyph glyph-name="ios-cafe"
      unicode="&#xF13C;"
      horiz-adv-x="512" d=" M369.7 108H110.1C102.5 108 96 102.2 95.7 94.6C95.3 86.6 101.7 80 109.7 80H369.3C376.9000000000001 80 383.4000000000001 85.8 383.7 93.4C384 101.4 377.6 108 369.7 108z M399.2 393.5C399.3 404.3 395 414.4 387 421.9C379.8 428.5 370.3 432 360.5 432H86.8C76.9 432 67.1 428.4 59.9 421.6C51.8 413.9 47.5 403.4 48 392.3C50.4 340 58.3 294 71.8 255.7C82.8 224.1 97.6 197.6 115.7 176.8C147.5 140.1999999999999 184.5 128 193.6 128H253.7C259.2 128 278.7 135.1999999999999 297.9 147.5C320.3 161.8999999999999 340.3 184.1999999999999 356 212.0999999999999C356 212.0999999999999 356 212.0999999999999 356 212.0999999999999C358 211.9999999999999 360 211.8999999999999 361.9 211.8999999999999C389.1 211.8999999999999 414.7 221.5999999999999 434 239.2999999999999C453.4 257.0999999999999 464.1 280.7 464.1 305.8999999999999C464 344.8 438.2 379.4 399.2 393.5C399.2 393.5 399.2 393.5 399.2 393.5zM369.5 240.4C383.7 274.9 393.1 316.4 397.3 363.8C397.3 363.8 397.3 363.9 397.4000000000001 363.8C407.7000000000001 358.8 416.5000000000001 351.6 423.2000000000001 342.9C431.6 332 436.0000000000001 319.2 436.0000000000001 305.9C436 271.9 406.8 243.8 369.5 240.4C369.5 240.4 369.5 240.4 369.5 240.4z" />
    <glyph glyph-name="ios-calculator"
      unicode="&#xF13D;"
      horiz-adv-x="512" d=" M372 464H140C122.3 464 108 449.7 108 432V80C108 62.3 122.3 48 140 48H372C389.7 48 404 62.3 404 80V432C404 449.7 389.7 464 372 464zM360 192V112C360 98.7 349.3 88 336 88H336C322.7 88 312 98.7 312 112V192C312 205.3 322.7 216 336 216H336C349.3 216 360 205.3 360 192zM360 272L360 272C360 258.7 349.3 248 336 248H336C322.7 248 312 258.7 312 272V272C312 285.3 322.7 296 336 296H336C349.3 296 360 285.3 360 272zM280 112L280 112C280 98.7 269.3 88 256 88H256C242.7 88 232 98.7 232 112V112C232 125.3 242.7 136 256 136H256C269.3 136 280 125.3 280 112zM280 192L280 192C280 178.7 269.3 168 256 168H256C242.7 168 232 178.7 232 192V192C232 205.3 242.7 216 256 216H256C269.3 216 280 205.3 280 192zM280 272L280 272C280 258.7 269.3 248 256 248H256C242.7 248 232 258.7 232 272V272C232 285.3 242.7 296 256 296H256C269.3 296 280 285.3 280 272zM200 112L200 112C200 98.7 189.3 88 176 88H176C162.7 88 152 98.7 152 112V112C152 125.3 162.7 136 176 136H176C189.3 136 200 125.3 200 112zM200 192L200 192C200 178.7 189.3 168 176 168H176C162.7 168 152 178.7 152 192V192C152 205.3 162.7 216 176 216H176C189.3 216 200 205.3 200 192zM200 272L200 272C200 258.7 189.3 248 176 248H176C162.7 248 152 258.7 152 272V272C152 285.3 162.7 296 176 296H176C189.3 296 200 285.3 200 272zM152 352V400C152 408.8 159.2 416 168 416H344C352.8 416 360 408.8 360 400V352C360 343.2 352.8 336 344 336H168C159.2 336 152 343.2 152 352z" />
    <glyph glyph-name="ios-calendar"
      unicode="&#xF13E;"
      horiz-adv-x="512" d=" M424 416H384V392C384 387.6 380.4 384 376 384H360C355.6 384 352 387.6 352 392V416H160V392C160 387.6 156.4 384 152 384H136C131.6 384 128 387.6 128 392V416H88C66 416 48 398 48 376V104C48 82 66 64 88 64H424C446 64 464 82 464 104V376C464 398 446 416 424 416zM432 116C432 105 423 96 412 96H100C89 96 80 105 80 116V296C80 300.4 83.6 304 88 304H424C428.4 304 432 300.4 432 296V116z M160 440C160 444.4 156.4 448 152 448H136C131.6 448 128 444.4 128 440V416H160V440z M384 440C384 444.4 380.4 448 376 448H360C355.6 448 352 444.4 352 440V416H384V440z" />
    <glyph glyph-name="ios-call"
      unicode="&#xF13F;"
      horiz-adv-x="512" d=" M436.9 147.2C422.2 161.9 386.9 184 369.5 192.3C349.3 202 341.9 201.8 327.6 191.5C315.7000000000001 182.9 308 174.9 294.3 177.9C280.6 180.8 253.6 201.3 227.4 227.4C201.2 253.6 180.8 280.6 177.9 294.3C175 308.1 183 315.7 191.5 327.6C201.8 341.9 202.1 349.3 192.3 369.5C184 387 162 422.2 147.2 436.9C132.5 451.6 129.2 448.4 121.1 445.5C121.1 445.5 109.1 440.7 97.2 432.8C82.5 423 74.3 414.8 68.5 402.5C62.8 390.2 56.2 367.3 89.8 307.5C116.9 259.2 143.5 222.6 183 183.2V183.2C183 183.2 183 183.2 183.1 183.1C183.1 183.1 183.1 183.1 183.2 183L183.2 183C222.7 143.5 259.2 116.9 307.5 89.8C367.3 56.1999999999999 390.2 62.8 402.5 68.4999999999999C414.8 74.1999999999999 423 82.3999999999999 432.8 97.1999999999999C440.7 109.0999999999999 445.5 121.0999999999999 445.5 121.0999999999999C448.4 129.2 451.7 132.5 436.9 147.2z" />
    <glyph glyph-name="ios-camera"
      unicode="&#xF140;"
      horiz-adv-x="512" d=" M198.5 237C198.5 205.2436268847294 224.2436268847294 179.5 256 179.5C287.7563731152706 179.5 313.5 205.2436268847294 313.5 237C313.5 268.7563731152707 287.7563731152706 294.5 256 294.5C224.2436268847294 294.5 198.5 268.7563731152707 198.5 237z M417.5 352L363 352C358.4 352 354.1 354 351 357.4C322.6 389.2 311.9 400 300.3 400H214.8C203.1 400 191.6 389.2 163.1 357.3C160.1 353.9 155.7 352 151.2 352L147.1 352V360C147.1 364.4 143.5 368 139.1 368H113.1C108.7 368 105.1 364.4 105.1 360V352H97.6C79.9 352 64 338.8 64 321.3V145.3C64 127.8 79.9 112 97.5 112H417.5C435.1 112 448 127.8 448 145.3V321.3C448 338.8 435.1 352 417.5 352zM260 151.6C209.7 149.3 168.3 190.7000000000001 170.6 241C172.6 284.9 208.1 320.4 252 322.4C302.3 324.7000000000001 343.7 283.3 341.4 233C339.4 189.1 303.9 153.6 260 151.6zM352 294C344.8 294 339 299.8 339 307S344.8 320 352 320S365 314.2 365 307S359.2 294 352 294z" />
    <glyph glyph-name="ios-car"
      unicode="&#xF141;"
      horiz-adv-x="512" d=" M416 315.8C402.2 346.6 367 408 316 408H196C145 408 111.2 348.6 96 315.8C72 292.8 48 270.1 48 231V155C48 151.3 50.6 148 54.2 147.2C69.1 143.8 116.4 137 256 137S442.9 143.8 457.8 147.2C461.4 148 464 151.3 464 155V231C464 270 441.7 294.1 416 315.8zM190 384C225 384 281.5 384 322 384S384 324 384 314H128C128 324 155 384 190 384zM112 180.3C94.3 180.3 80 194.6 80 212.3C80 230 94.3 244.3 112 244.3C129.7 244.3 144 230 144 212.3C144 194.7 129.7 180.3 112 180.3zM328 212C328 203.2 320.8 196 312 196H200C191.2 196 184 203.2 184 212L184 212C184 220.8 191.2 228 200 228H312C320.8 228 328 220.8 328 212L328 212zM400 180C382.3 180 368 194.3 368 212C368 229.7 382.3 244 400 244S432 229.7 432 212C432 194.3 417.7 180 400 180z M160 128C112.1 128 64 133 64 133C64 116 63.7 104 70 104S148.7 104 155 104S160 117.2 160 128z M352 128C400 128 448 133 448 133C448 117 450 104 443 104S363.7 104 357 104S352 117.5 352 128z" />
    <glyph glyph-name="ios-card"
      unicode="&#xF142;"
      horiz-adv-x="512" d=" M480 384C480 401.6 465.6 416 448 416H64C46.4 416 32 401.6 32 384V336H480V384z M32 128C32 110.4 46.4 96 64 96H448C465.6 96 480 110.4 480 128V288H32V128zM174 176H338C345.7 176 352 169.7 352 162L352 162C352 154.3 345.7 148 338 148H174C166.3 148 160 154.3 160 162L160 162C160 169.7 166.3 176 174 176zM102 176H114C121.7 176 128 169.7 128 162L128 162C128 154.3 121.7 148 114 148H102C94.3 148 88 154.3 88 162L88 162C88 169.7 94.3 176 102 176z" />
    <glyph glyph-name="ios-cart"
      unicode="&#xF143;"
      horiz-adv-x="512" d=" M136.00033208 87.5704631199999C136.244587786782 74.3182800908601 147.1856131308602 63.773271493218 160.43779616 64.0175272C173.6899791891399 64.261782906782 184.234987786782 75.2028082508601 183.99073208 88.45499128C183.7464763732181 101.7071743091398 172.8054510291399 112.2521829067819 159.553268 112.0079272C146.3010849708602 111.763671493218 135.7560763732181 100.8226461491398 136.00033208 87.5704631199999z M383.9479518550001 64.01164976C397.1988094007403 63.6959658735874 408.1966642085875 74.1819959742597 408.5123480950001 87.43285352C408.8280319814127 100.6837110657403 398.3420018807404 111.6815658735874 385.0911443350001 111.99724976C371.8402867892598 112.3129336464126 360.8424319814127 101.8269035457403 360.526748095 88.576046C360.2110642085874 75.3251884542597 370.6970943092598 64.3273336464126 383.9479518550001 64.01164976z M463.8 379.8C463.1 382.2000000000001 461 383.8 458.6 384L132.9 415.5C130.1 415.8 126.7 417.6 125.4 420.2C121.6 427.3 119.2 431.3 113.2 438.8C105.5 448.2 91 447.9 64.4 448.1C55.4 448.2 48.1 442.9 48.1 434C48.1 425.3 55 419.9000000000001 63.7 419.9000000000001C72.4 419.9000000000001 85 419.4000000000001 89.7 418C94.4 416.6 98.2 408.9000000000001 99.6 402.2000000000001C99.6 402.1 99.6 402 99.7 401.9000000000001C99.9 400.7000000000001 101.7 391.7000000000001 101.7 391.6L141.7 180C144.1 165.5 149 153.5 156.2 144.3C164.6 133.5 175.7 128.1 189.1 128.1H425.7000000000001C433.3000000000001 128.1 439.8000000000001 133.9 440.1 141.5C440.5 149.5 434.1 156.1 426.1 156.1H189H188.9C186.9 156.1 184 156.1 180.6 158.9C177.1 161.9 172.3 168.8 169.1 184.9L164.8 208.6C164.8 208.9 164.9 209.1 165.2 209.2000000000001L442.9 256.2000000000001C445.5 256.6 447.5 258.7000000000001 447.8 261.4000000000001L463.8 377.2000000000001C464 378 464 378.9 463.8 379.8z" />
    <glyph glyph-name="ios-cash"
      unicode="&#xF144;"
      horiz-adv-x="512" d=" M466 156.1H46C38.3 156.1 32 149.8 32 142.1S38.3 128.1 46 128.1H466C473.7 128.1 480 134.4 480 142.1S473.7 156.1 466 156.1z M466 108.1H46C38.3 108.1 32 101.8 32 94.1S38.3 80.1 46 80.1H466C473.7 80.1 480 86.4 480 94.1S473.7 108.1 466 108.1z M444.9 431.9H67.1C47.8 431.9 32 416.1 32 396.8V219C32 199.7 47.8 183.9 67.1 183.9H444.9C464.2 183.9 480 199.7 480 219V396.8C480 416.1 464.2 431.9 444.9 431.9zM114 215.9H78C70.3 215.9 64 222.2 64 229.9S70.3 243.9 78 243.9H114C121.7 243.9 128 237.6 128 229.9S121.7 215.9 114 215.9zM114 371.9H78C70.3 371.9 64 378.2000000000001 64 385.9S70.3 399.9 78 399.9H114C121.7 399.9 128 393.6 128 385.9S121.7 371.9 114 371.9zM256 227.9C211.9 227.9 176 263.8 176 307.9S211.9 387.9 256 387.9C300.1 387.9 336 352 336 307.9S300.1 227.9 256 227.9zM434 215.9H398C390.3 215.9 384 222.2 384 229.9S390.3 243.9 398 243.9H434C441.7 243.9 448 237.6 448 229.9S441.7 215.9 434 215.9zM434 371.9H398C390.3 371.9 384 378.2000000000001 384 385.9S390.3 399.9 398 399.9H434C441.7 399.9 448 393.6 448 385.9S441.7 371.9 434 371.9z M203 306C203 276.728908258968 226.728908258968 253 256 253C285.2710917410321 253 309 276.728908258968 309 306C309 335.271091741032 285.2710917410321 359 256 359C226.728908258968 359 203 335.271091741032 203 306z" />
    <glyph glyph-name="ios-cellular"
      unicode="&#xF145;"
      horiz-adv-x="512" d=" M408.4 460.2C405.8 462.7 402.3 464 398.7 464C395 464 391.5 462.6 388.8 460.1C386.1 457.5 384.7 454.1 384.7 450.5C384.7 446.9 386.2 443.5 388.9 440.9C419.3 412.4 436 374.4 436 333.8V333.8C436 293.3 419.3 255.3 388.9 226.7000000000001C386.2 224.2000000000001 384.7 220.8000000000001 384.7 217.1C384.7 213.5 386.1 210.1 388.8 207.5C391.4000000000001 205 394.9000000000001 203.6 398.7 203.6C402.4 203.6 405.8 205 408.4 207.4C444.3 241.0000000000001 464 285.9000000000001 464 333.8000000000001V333.8000000000001V333.9000000000001V333.9000000000001C464 381.8 444.2 426.6 408.4 460.2z M351 415.2C348.6 417.5 345.4 418.7 342 418.7C338.7 418.7 335.5 417.5 333.1 415.3C330.6 413 329.2000000000001 409.9 329.2000000000001 406.6C329.2000000000001 403.3 330.5000000000001 400.2 333.0000000000001 397.9C351.0000000000001 380.9 360.8000000000001 358.1 360.8000000000001 333.9V333.9C360.8000000000001 309.7 350.9000000000001 286.9 333.0000000000001 269.9C330.5000000000001 267.6 329.2000000000001 264.5 329.2000000000001 261.2C329.2000000000001 257.9 330.6 254.8 333.1 252.5C335.5 250.3 338.6 249.1 342 249.1C345.4 249.1 348.6 250.4000000000001 351 252.6C373.8 274.3 386.4 303.1 386.4 333.9000000000001V333.9000000000001V334V334C386.4 364.7 373.8 393.5 351 415.2z M123.1 440.9C125.8 443.4 127.3 446.8 127.3 450.5C127.3 454.1 125.9 457.5 123.2 460.1C120.6 462.6 117.1 464 113.3 464H113.3C109.6 464 106.2 462.6 103.6 460.2C67.7 426.6 48 381.7 48 333.8V333.6V333.6C48 285.8 67.8 241 103.6 207.4C106.2 204.9 109.7 203.6 113.3 203.6C117 203.6 120.5 205 123.2 207.5C125.9 210.1 127.3 213.5 127.3 217.1C127.3 220.7000000000001 125.8 224.1 123.1 226.7000000000001C92.7 255.2000000000001 76 293.2000000000001 76 333.8000000000001V333.8000000000001C75.9 374.4 92.7 412.4 123.1 440.9z M179 397.9C181.5 400.2 182.8 403.3 182.8 406.6C182.8 409.9 181.4 413 178.9 415.3C176.5 417.5 173.4 418.7000000000001 170 418.7000000000001C166.6 418.7000000000001 163.4 417.4000000000001 161 415.2000000000001C138.2 393.5 125.6 364.7000000000001 125.6 333.9000000000001V333.8000000000001V333.8000000000001C125.6 303 138.2 274.2000000000001 161 252.6C163.4 250.3 166.6 249.1 170 249.1C173.3 249.1 176.5 250.3 178.9 252.5C181.4 254.8 182.8 257.9 182.8 261.2C182.8 264.5 181.5 267.6 179 269.9C161 286.9 151.2 309.7 151.2 333.9V333.9C151.1 358.1 161 380.8 179 397.9z M256 388.8C229.5 388.8 208 367.3 208 340.8C208 319.2000000000001 222.3 300.9 242 294.9V61.9C242 54.2 248.3 48 256 48S270 54.2 270 61.9V294.9C289.7 300.9 304 319.2 304 340.8C304 367.3 282.5 388.8 256 388.8z" />
    <glyph glyph-name="ios-chatboxes"
      unicode="&#xF146;"
      horiz-adv-x="512" d=" M425.9 341.6H204.3C183.3 341.6 166.2 324.5 166.2 303.5V149.2C166.2 128.2 183.3 111.2 204.3 111.2H331.1C333.9000000000001 111.2 336.7000000000001 110 338.7000000000001 108L401.7000000000001 49.9C405.2000000000001 46.5 411.0000000000001 47.9 411.0000000000001 52.8L411.0000000000001 103.4C411.0000000000001 109.4 414.8000000000001 111.3 420.8000000000001 111.3H421.8000000000001C442.8000000000001 111.3 463.9000000000001 128.1999999999999 463.9000000000001 149.3V303.5C464 324.6 446.9 341.6 425.9 341.6z M174.4 366.1H351.8V431.4C351.8 449.4 337.2 464 319.2 464H80.6C62.6 464 48 449.4 48 431.4V266.2000000000001C48 248.2000000000001 62.6 233.6 80.6 233.6H141.7V333.5C141.8 351.5 156.4 366.1 174.4 366.1z" />
    <glyph glyph-name="ios-chatbubbles"
      unicode="&#xF147;"
      horiz-adv-x="512" d=" M431 191.4C431 195.8 432.2 200 434.3 203.6C434.9000000000001 204.7 435.7 205.7 436.4000000000001 206.7C453.8 232.7 464.0000000000001 263.8 464.0000000000001 297C464.3 389.2 386.5 464 290.3 464C206.4 464 136.4 406.9 120 331.1C117.6 320 116.3 308.7 116.3 296.9C116.3 204.6 191.1 127.8 287.3 127.8C302.6 127.8 323.2 132.4 334.5 135.5C345.8 138.6 357 142.6999999999999 359.9 143.8C362.8 144.9 366 145.5 369.2 145.5C372.8 145.5 376.2 144.8 379.3 143.5L436 123.3999999999999C436 123.3999999999999 438.4 122.3999999999999 439.9 122.3999999999999C444.3 122.3999999999999 447.9 125.8999999999999 447.9 130.3999999999999C447.9 131.3999999999999 447.4 133.0999999999999 447.4 133.0999999999999L431 191.4z M318.5 119.5C314.9 118.5 310.3 117.4 305.3 116.3C294.8 114.1 281.4000000000001 111.8 271.3 111.8C175.1 111.8 100.3 188.6 100.3 280.9C100.3 287.5 101 295.9 101.8 302.3C102.4 306.6 103.1 310.9 104.1 315.1C105.1 319.6 106.3 324.1 107.6 328.5L99.6 321.4000000000001C66.8 292.8 48 252 48 209.5C48 180.2 56.5 152 72.8 127.5C75.1 124 76.4 121.3 76 119.5C75.6 117.7 64.1 57.5 64.1 57.5C63.5 54.6 64.6 51.7 66.8 49.8C68.3 48.6 70.1 48 71.9 48C72.9 48 73.9 48.2 74.8 48.6L130.9 70.7000000000001C132.7 71.4 134.6 71.8000000000001 136.6 71.8000000000001C136.6 71.8000000000001 139 72.0000000000001 142.9 70.5000000000001C161.8 63.1000000000001 182.7 58.5000000000001 203.6 58.5000000000001C250.2 58.5000000000001 294 78.6000000000001 323.7000000000001 113.6000000000001C323.7000000000001 113.6000000000001 326.9000000000001 118.0000000000001 330.6 123.2000000000001C326.9 121.9 322.7 120.6 318.5 119.5z" />
    <glyph glyph-name="ios-checkbox-outline"
      unicode="&#xF148;"
      horiz-adv-x="512" d=" M416 448H96C78.3 448 64 433.7 64 416V96C64 78.3 78.3 64 96 64H416C433.7 64 448 78.3 448 96V416C448 433.7 433.7 448 416 448zM420 100C420 95.6 416.4 92 412 92H100C95.6 92 92 95.6 92 100V412C92 416.4 95.6 420 100 420H412C416.4 420 420 416.4 420 412V100z M363.6 319.1L346 337.2C345.3 338 344.2 338.4 343.2 338.4C343.2 338.4 343.2 338.4 343.2 338.4C342.1 338.4 341.1 338 340.4 337.2L218.4 214.3L174 258.7C173.2 259.5 172.2 259.9 171.2 259.9C170.2 259.9 169.2 259.5 168.4 258.7L150.6 240.9C149 239.3 149 236.8 150.6 235.2L206.6 179.2C210.2 175.6 214.6 173.5 218.3 173.5C223.6 173.5 228.2 177.4 229.9 179C229.9 179 229.9 179 230 179L363.7 313.4C365.1 315.1 365.1 317.6 363.6 319.1z" />
    <glyph glyph-name="ios-checkbox"
      unicode="&#xF149;"
      horiz-adv-x="512" d=" M416 448H96C78.3 448 64 433.7 64 416V96C64 78.3 78.3 64 96 64H416C433.7 64 448 78.3 448 96V416C448 433.7 433.7 448 416 448zM363.5 313.5L229.8 179.2C229.8 179.2 229.8 179.2 229.7 179.2C228.0000000000001 177.5 223.4 173.7 218.1 173.7C214.3 173.7 210 175.8 206.4 179.4L150.4 235.4C148.8000000000001 237 148.8000000000001 239.5 150.4 241.1L168.2000000000001 258.9C169.0000000000001 259.7 170.0000000000001 260.1 171.0000000000001 260.1C172.0000000000001 260.1 173.0000000000001 259.7 173.8000000000001 258.9L218.2000000000001 214.5L340.2000000000001 337.4C341.0000000000001 338.2000000000001 342.0000000000001 338.6 343.0000000000001 338.6C343.0000000000001 338.6 343.0000000000001 338.6 343.0000000000001 338.6C344.1000000000001 338.6 345.1000000000001 338.2 345.8000000000001 337.4L363.3000000000001 319.3C365.1 317.6 365.1 315.1 363.5 313.5z" />
    <glyph glyph-name="ios-checkmark-circle-outline"
      unicode="&#xF14A;"
      horiz-adv-x="512" d=" M362.6 319.1L345 337.2C344.3 338 343.2 338.4 342.2 338.4C342.2 338.4 342.2 338.4 342.2 338.4C341.1 338.4 340.1 338 339.4 337.2L217.4 214.3L173 258.7C172.2 259.5 171.2 259.9 170.2 259.9C169.2 259.9 168.2 259.5 167.4 258.7L149.6 240.9C148 239.3 148 236.8 149.6 235.2L205.6 179.2C209.2 175.6 213.6 173.5 217.3 173.5C222.6 173.5 227.2 177.4 228.9 179C228.9 179 228.9 179 229 179L362.7 313.4C364.1 315.1 364.1 317.6 362.6 319.1z M256 436C304.1 436 349.3 417.3 383.3 383.3S436 304.1 436 256S417.3 162.7 383.3 128.7S304.1 76 256 76C207.9 76 162.7 94.7 128.7 128.7C94.7 162.7 76 207.9 76 256S94.7 349.3 128.7 383.3C162.7 417.3 207.9 436 256 436M256 464C141.1 464 48 370.9 48 256S141.1 48 256 48C370.9 48 464 141.1 464 256S370.9 464 256 464L256 464z" />
    <glyph glyph-name="ios-checkmark-circle"
      unicode="&#xF14B;"
      horiz-adv-x="512" d=" M256 464C141.1 464 48 370.9 48 256S141.1 48 256 48C370.9 48 464 141.1 464 256S370.9 464 256 464zM362.5 313.5L228.8 179.2C228.8 179.2 228.8 179.2 228.7 179.2C227.0000000000001 177.5 222.4 173.7 217.1 173.7C213.3 173.7 209 175.8 205.4 179.4L149.4 235.4C147.8000000000001 237 147.8000000000001 239.5 149.4 241.1L167.2000000000001 258.9C168.0000000000001 259.7 169.0000000000001 260.1 170.0000000000001 260.1C171.0000000000001 260.1 172.0000000000001 259.7 172.8000000000001 258.9L217.2000000000001 214.5L339.2000000000001 337.4C340.0000000000001 338.2000000000001 341.0000000000001 338.6 342.0000000000001 338.6C342.0000000000001 338.6 342.0000000000001 338.6 342.0000000000001 338.6C343.1000000000001 338.6 344.1000000000001 338.2 344.8000000000001 337.4L362.3000000000001 319.3C364.1 317.6 364.1 315.1 362.5 313.5z" />
    <glyph glyph-name="ios-checkmark"
      unicode="&#xF14C;"
      horiz-adv-x="512" d=" M362.6 319.1L345 337.2C344.3 338 343.2 338.4 342.2 338.4C342.2 338.4 342.2 338.4 342.2 338.4C341.1 338.4 340.1 338 339.4 337.2L217.4 214.3L173 258.7C172.2 259.5 171.2 259.9 170.2 259.9C169.2 259.9 168.2 259.5 167.4 258.7L149.6 240.9C148 239.3 148 236.8 149.6 235.2L205.6 179.2C209.2 175.6 213.6 173.5 217.3 173.5C222.6 173.5 227.2 177.4 228.9 179C228.9 179 228.9 179 229 179L362.7 313.4C364.1 315.1 364.1 317.6 362.6 319.1z" />
    <glyph glyph-name="ios-clipboard"
      unicode="&#xF14D;"
      horiz-adv-x="512" d=" M140.5 352V112C140.5 103.2 147.7 96 156.5 96H356.5C365.3 96 372.5 103.2 372.5 112V352C372.5 360.8 365.3 368 356.5 368H156.5C147.7 368 140.5 360.8 140.5 352z M321.5 431H304.5C304.5 436.6 303.5 442 301.8 447C299.7 453 296.5 458.4 292.4000000000001 463C283.6 472.9 270.8 480 256.5000000000001 480S229.4000000000001 472.9 220.6000000000001 463C216.5000000000001 458.4 213.3000000000001 453 211.2000000000001 447C209.5000000000001 442 208.5000000000001 436.6 208.5000000000001 431H194C184.4 431 176.5 423.1 176.5 413.5V398C176.5 396.9 177.4 396 178.5 396H334.5C335.6 396 336.5 396.9 336.5 398V416C336.5 424.3 329.8 431 321.5 431zM258.6 415.5C248.1 414.2 239.3 423 240.7 433.4C241.6 440.5 247.4 446.3 254.5000000000001 447.2C265 448.5 273.8 439.7 272.4000000000001 429.3C271.5 422.1 265.7 416.4 258.6 415.5z M400 464H324.8C323.1 464 322.2 462.1 323.2 460.8C326.1 456.9 328.5 452.7 330.2 448C330.5 447.2 331.2 446.7 332.1 446.7H332.6C351.3 446.7 359.5 431.8 360.1 413.2L360.1 413.2V412.1V398C360.1 396.9 361 396 362.1 396H382.4C391.2 396 398.4 388.8 398.4 380V82.6C398.4 73.8 391.2 66.6 382.4 66.6H129.4C120.6 66.6 113.4 73.8 113.4 82.6V380C113.4 388.8 120.6 396 129.4 396H150.7C151.8 396 152.7 396.9 152.7 398V406.8C152.7 425.9 158.3 443.5 180.3 443.5H180.6C181.5 443.5 182.4 444.1 182.5 445.1C184 452 186.6 456.8 189.7 460.9C190.7 462.2 189.8 464.1 188.1 464.1L111.8 464.2C94.3 464.1 80 449.9 80 432.3V88C80 46.3 94.3 32 112 32H400.5C417.9 32 432 46.1 432 63.5V432C432 449.7 417.7 464 400 464z" />
    <glyph glyph-name="ios-clock"
      unicode="&#xF14E;"
      horiz-adv-x="512" d=" M403.1 403.1C321.9000000000001 484.3 190.2 484.3 108.9 403.1C27.6 321.9 27.7 190.2 108.9 108.9C190.1 27.7 321.8000000000001 27.7 403.1 108.9C484.3 190.1 484.3 321.9 403.1 403.1zM89.6 248.2C84 247.1 79.1 252 80.2 257.6C80.8 260.7 83.3 263.3 86.5 263.9C92.1 265 97 260.1 95.9 254.5C95.3 251.3 92.7 248.8 89.6 248.2zM115.8 166C111.5 162.3 104.8 164.1 103 169.5C102 172.5 102.9 176 105.3 178C109.6 181.7 116.3 179.9 118.1 174.5C119.1 171.5 118.2 168.1 115.8 166zM118.1 337.5C116.2 332.1 109.6 330.3 105.3 334C102.9 336.1 102 339.5 103 342.5C104.9 347.9 111.5 349.7 115.8 346C118.2 343.9 119.1 340.5 118.1 337.5zM179.6 108C177.7 102.6 171.1 100.8 166.8 104.5C164.4 106.6 163.5 110 164.5 113C166.4 118.4 173 120.2 177.3 116.5C179.7 114.4 180.6 111 179.6 108zM177.3 395.5C173 391.8 166.3 393.6 164.5 399C163.5 402 164.4 405.5 166.8 407.5C171.1 411.2 177.8 409.4 179.6 404C180.6 401 179.7 397.6 177.3 395.5zM212.7 319.2C210.4 323 211.7 327.9 215.4 330.2C219.2 332.5 224.1 331.2 226.4 327.5L260.1 265.2C262.6 260.5 264 255.3 264 250V128C264 123 261 120 256 120C251 120 248 123 248 128V250C248 252.7 247.3 255.3 246.1 257.6L212.7 319.2zM257.6 80.2C252.0000000000001 79.1 247.1 84 248.2 89.6C248.8 92.7 251.3 95.3 254.5000000000001 95.9C260.1 97 265 92.1 263.9000000000001 86.5C263.3 83.3 260.7 80.8 257.6 80.2zM257.6 416.2C252.0000000000001 415.1 247.1 420 248.2 425.6C248.8 428.7 251.3 431.3 254.5000000000001 431.9C260.1 433 265 428.1 263.9000000000001 422.5C263.3 419.3 260.7 416.8 257.6 416.2zM345.3 104.5C341 100.8 334.3 102.6 332.5 108C331.5 111 332.4 114.5 334.8 116.5C339.1 120.2 345.8 118.4 347.6 113C348.6 110 347.7 106.6 345.3 104.5zM347.6 399C345.7000000000001 393.6 339.1 391.8 334.8 395.5C332.4000000000001 397.6 331.5 401 332.5 404C334.4 409.4 341 411.2 345.3 407.5C347.7 405.4 348.6 402 347.6 399zM409.1 169.5C407.2000000000001 164.1 400.6 162.3 396.3 166C393.9000000000001 168.1 393 171.5 394 174.5C395.9 179.9 402.5 181.7 406.8 178C409.2 175.9 410.1 172.5 409.1 169.5zM406.8 334C402.5 330.3 395.8 332.1 394 337.5C393 340.5 393.9 344 396.3 346C400.6 349.7 407.3 347.9 409.1 342.5C410.1 339.5 409.2 336.1 406.8 334zM425.6 248.2C420 247.1 415.1 252 416.2000000000001 257.6C416.8000000000001 260.7 419.3000000000001 263.3 422.5000000000001 263.9C428.1000000000001 265 433.0000000000001 260.1 431.9000000000001 254.5C431.3 251.3 428.7 248.8 425.6 248.2z" />
    <glyph glyph-name="ios-close-circle-outline"
      unicode="&#xF14F;"
      horiz-adv-x="512" d=" M331.3 203.3L278.6 256L331.3 308.7C337.5 314.9 337.5 325.1 331.3 331.3C325.1 337.5 314.9000000000001 337.5 308.7 331.3L256 278.6L203.3 331.3C197.1 337.5 187.7 338.4 180.7 331.3C173.6 324.2000000000001 174.7 314.7000000000001 180.7 308.7000000000001C186.7 302.7000000000001 233.4000000000001 256 233.4000000000001 256S187.4 210 180.7000000000001 203.3C174.0000000000001 196.6 174.3000000000001 187 180.7000000000001 180.7C187.1000000000001 174.3 197.1000000000001 174.5 203.3000000000001 180.7L256.0000000000001 233.4L308.7000000000001 180.7C314.9000000000001 174.5 325.1 174.5 331.3000000000001 180.7C337.6 186.9 337.6 197.1 331.3 203.3z M256 436C304.1 436 349.3 417.3 383.3 383.3S436 304.1 436 256S417.3 162.7 383.3 128.7S304.1 76 256 76C207.9 76 162.7 94.7 128.7 128.7C94.7 162.7 76 207.9 76 256S94.7 349.3 128.7 383.3C162.7 417.3 207.9 436 256 436M256 464C141.1 464 48 370.9 48 256S141.1 48 256 48C370.9 48 464 141.1 464 256S370.9 464 256 464L256 464z" />
    <glyph glyph-name="ios-close-circle"
      unicode="&#xF150;"
      horiz-adv-x="512" d=" M256 464C141.1 464 48 370.9 48 256S141.1 48 256 48C370.9 48 464 141.1 464 256S370.9 464 256 464zM308.7 180.7L256 233.4L203.3 180.7C197.1 174.5 186.9 174.5 180.7 180.7C177.6 183.8 176 187.9 176 192C176 196.1 177.6 200.2 180.7 203.3L233.4000000000001 256L180.7000000000001 308.7C177.6000000000001 311.8 176.0000000000001 315.9 176.0000000000001 320C176.0000000000001 324.1 177.6000000000001 328.2 180.7000000000001 331.3C186.9 337.5 197.1000000000001 337.5 203.3000000000001 331.3L256.0000000000001 278.6L308.7000000000001 331.3C314.9000000000001 337.5 325.1 337.5 331.3000000000001 331.3C337.5000000000001 325.1 337.5000000000001 314.9 331.3000000000001 308.7000000000001L278.6 256L331.3 203.3C337.5 197.1 337.5 186.9 331.3 180.7C325.1 174.4 314.9 174.4 308.7 180.7z" />
    <glyph glyph-name="ios-close"
      unicode="&#xF151;"
      horiz-adv-x="512" d=" M278.6 256L346.8 324.2C353 330.4 353 340.6 346.8 346.8C340.6 353 330.4000000000001 353 324.2 346.8L256 278.6L187.8 346.8C181.6 353 171.4 353 165.2 346.8C162.1 343.7000000000001 160.5 339.6 160.5 335.5C160.5 331.4 162.1 327.3 165.2 324.2L233.4000000000001 256L165.2000000000001 187.8C162.1000000000001 184.7 160.5000000000001 180.6 160.5000000000001 176.5C160.5000000000001 172.4 162.1000000000001 168.3 165.2000000000001 165.2C171.4 159 181.6000000000001 159 187.8000000000001 165.2L256.0000000000001 233.4L324.2000000000001 165.2C330.4000000000001 159 340.6 159 346.8000000000001 165.2C353.0000000000001 171.4 353.0000000000001 181.6 346.8000000000001 187.8L278.6 256z" />
    <glyph glyph-name="ios-cloud-circle"
      unicode="&#xF152;"
      horiz-adv-x="512" d=" M256 464C141.1 464 48 370.9 48 256S141.1 48 256 48C370.9 48 464 141.1 464 256S370.9 464 256 464zM338.6 192H173.4C148.3 192 128 213.4 128 239.2C128 260.2 141.2 279 161.2 285.4C161.5 305.4 177.4 321.5 196.9 321.5C202.2 321.5 207.3 320.3 211.8 318.1C224.9 338.6 248.7 351.9 274.3 351.9C312 351.9 341.8 322.6 345.7 285C367.3999999999999 281.5 384 262.3 384 239.1C384 213.4 363.7 192 338.6 192z" />
    <glyph glyph-name="ios-cloud-done"
      unicode="&#xF153;"
      horiz-adv-x="512" d=" M437.1 282.2C429 357.4 365.4 416 288 416C236.8 416 191.7 390.4 164.6 351.3C156.3 354.7000000000001 147.2 356.6 137.7 356.6C98.6 356.6 66.9 322.2000000000001 66.3 283.2000000000001C26.4 270.5 0 231.5 0 190.5C0 140.3 40.7 96 90.9 96H421.2000000000001C471.4 96 512.1 140.3 512.1 190.5C512 235.2 479.7 274.6 437.1 282.2zM362.5 299.5L228.8 165.2C228.8 165.2 228.8 165.2 228.7 165.2C227.0000000000001 163.5 222.4 159.7 217.1 159.7C213.3 159.7 209 161.8 205.4 165.4L149.4 221.4C147.8000000000001 223 147.8000000000001 225.5 149.4 227.1L167.2000000000001 244.9C168.0000000000001 245.7 169.0000000000001 246.1 170.0000000000001 246.1C171.0000000000001 246.1 172.0000000000001 245.7 172.8000000000001 244.9L217.2000000000001 200.5L339.2000000000001 323.4C340.0000000000001 324.2000000000001 341.0000000000001 324.6 342.0000000000001 324.6C342.0000000000001 324.6 342.0000000000001 324.6 342.0000000000001 324.6C343.1000000000001 324.6 344.1000000000001 324.2 344.8000000000001 323.4L362.3000000000001 305.3C364.1 303.6 364.1 301.1 362.5 299.5z" />
    <glyph glyph-name="ios-cloud-download"
      unicode="&#xF154;"
      horiz-adv-x="512" d=" M437.1 346.2C429 421.4 365.4 480 288 480C236.8 480 191.7 454.4 164.6 415.3C156.3 418.7 147.2 420.6 137.7 420.6C98.6 420.6 66.9 386.2 66.3 347.2C26.4 334.5 0 295.5 0 254.5C0 204.3 40.7 160 90.9 160H243V301C243 308.2 248.8 314 256 314S269 308.2 269 301V160H421.1C471.3 160 512 204.3 512 254.5C512 299.2 479.7 338.6 437.1 346.2z M243 76.1L195.1 123.3C190 128.3 181.8 128.3 176.7 123.2C171.7 118.1 171.7 109.9 176.8 104.8L246.8 35.8C249.3 33.4 252.6 32.1 255.9 32.1C257.6 32.1 259.3 32.4 260.9 33.1C262.4 33.7 263.8 34.7 265 35.8C265 35.8 265 35.8 265 35.8L335 104.8C340.1 109.8 340.2 118.1 335.1 123.2C330.1 128.3 321.8 128.4 316.7000000000001 123.3L269 76.1V160H243V76.1z" />
    <glyph glyph-name="ios-cloud-outline"
      unicode="&#xF155;"
      horiz-adv-x="512" d=" M288 388C318.3 388 347.3 376.8 369.8 356.5C392.1 336.4 406.1 308.9 409.3 279.2L410.5 268.1C411.1 262.3 415.5 257.6 421.2 256.6L432.2 254.6C446.2 252.1 459.2 244.2000000000001 468.9 232.5C478.7 220.5 484.1 205.6 484.1 190.4C484.1 173.4 477.2 156.3 465.2 143.6C453 131 437.4 124 421.1 124H90.9C74.6 124 59 131 47 143.7C35 156.4 28.1 173.4 28.1 190.5C28.1 204.9 32.7 219.4 41.2 231.4C49.8 243.6 61.4 252.3 74.9 256.5L85.2 259.8C90.5 261.5 94.2 266.4 94.3 272L94.5 282.8C94.7 294.6 99.6 306.4 108 315.2C116.3 323.9 126.9 328.6 137.9 328.6C143.5 328.6 149 327.5 154.2 325.4L165.3 320.9C171 318.6 177.5 320.5 181 325.6L187.8 335.4C210.4 368.3 248 388 288 388M288 416C236.8 416 191.7 390.4 164.6 351.3C156.3 354.7000000000001 147.2 356.6 137.7 356.6C98.6 356.6 66.9 322.2000000000001 66.3 283.2000000000001C26.4 270.5 0 231.5 0 190.5C0 140.3 40.7 96 90.9 96H421.2000000000001C471.4 96 512.1 140.3 512.1 190.5C512.1 235.2 479.8 274.6 437.2000000000001 282.2C429 357.4 365.4 416 288 416L288 416z" />
    <glyph glyph-name="ios-cloud-upload"
      unicode="&#xF156;"
      horiz-adv-x="512" d=" M437.1 346.2C429 421.4 365.4 480 288 480C236.8 480 191.7 454.4 164.6 415.3C156.3 418.7 147.2 420.6 137.7 420.6C98.6 420.6 66.9 386.2 66.3 347.2C26.4 334.5 0 295.5 0 254.5C0 204.3 40.7 160 90.9 160H243V301.9L195.1 254.7C190 249.7 181.8 249.7 176.7 254.8C171.7 259.9 171.7 268.1 176.8 273.2000000000001L246.8 342.2000000000001C246.8 342.2000000000001 246.8 342.2000000000001 246.8 342.2000000000001C248 343.3 249.3 344.3 250.9 344.9C252.5 345.6 254.2 345.9 255.9 345.9C259.3 345.9 262.5 344.6 265 342.2000000000001L335 273.2000000000001C340.1 268.2000000000001 340.2 259.9 335.1 254.8C330.1 249.7 321.8 249.6 316.7000000000001 254.7L269 301.9V160H421.1C471.3 160 512 204.3 512 254.5C512 299.2 479.7 338.6 437.1 346.2z M243 45C243 37.8 248.8 32 256 32S269 37.8 269 45V160H243V45z" />
    <glyph glyph-name="ios-cloud"
      unicode="&#xF157;"
      horiz-adv-x="512" d=" M437.1 282.2C429 357.4 365.4 416 288 416C236.8 416 191.7 390.4 164.6 351.3C156.3 354.7000000000001 147.2 356.6 137.7 356.6C98.6 356.6 66.9 322.2000000000001 66.3 283.2000000000001C26.4 270.5 0 231.5 0 190.5C0 140.3 40.7 96 90.9 96H421.2000000000001C471.4 96 512.1 140.3 512.1 190.5C512 235.2 479.7 274.6 437.1 282.2z" />
    </font>
</defs>
</svg>
